<svg xmlns="http://www.w3.org/2000/svg" xmlns:xlink="http://www.w3.org/1999/xlink" viewBox="0 0 3710 3710">
  <defs>
    <linearGradient id="linear-gradient" x1="3591.78" y1="4027.3" x2="1116.53" y2="953.19" gradientUnits="userSpaceOnUse">
      <stop offset="0" stop-color="#b37cff"/>
      <stop offset="1" stop-color="#f895e7"/>
    </linearGradient>
    <linearGradient id="linear-gradient-2" x1="-3686.43" y1="1557.7" x2="-2422.8" y2="1557.7" gradientTransform="matrix(-1, -0.08, -0.08, 1, -350.88, 511.57)" xlink:href="#linear-gradient"/>
    <linearGradient id="New_Gradient_Swatch_20" data-name="New Gradient Swatch 20" x1="-2214.04" y1="19.54" x2="-1450.08" y2="19.54" gradientTransform="matrix(-0.95, -0.31, -0.31, 0.95, 671.35, 820.16)" gradientUnits="userSpaceOnUse">
      <stop offset="0" stop-color="#a737d5"/>
      <stop offset="1" stop-color="#ef497a"/>
    </linearGradient>
    <linearGradient id="New_Gradient_Swatch_20-2" x1="4515.42" y1="1747.72" x2="5180.58" y2="1747.72" gradientTransform="translate(-4269.26 590.23) rotate(-10.97)" xlink:href="#New_Gradient_Swatch_20"/>
    <linearGradient id="linear-gradient-3" x1="2328.69" y1="422.24" x2="-622.38" y2="5776.34" gradientUnits="userSpaceOnUse">
      <stop offset="0" stop-color="#2b3582"/>
      <stop offset="1" stop-color="#150e42"/>
    </linearGradient>
    <linearGradient id="Adsız_degrade_9" data-name="Adsız degrade 9" x1="1725.37" y1="743.76" x2="1170.81" y2="4242.49" gradientUnits="userSpaceOnUse">
      <stop offset="0" stop-color="#f7dfb9"/>
      <stop offset="0.49" stop-color="#f1b7b1"/>
      <stop offset="0.59" stop-color="#f1b4b0"/>
      <stop offset="1" stop-color="#f0aeaf"/>
    </linearGradient>
    <linearGradient id="linear-gradient-4" x1="1443.4" y1="-1111.7" x2="1544.24" y2="-83.1" gradientUnits="userSpaceOnUse">
      <stop offset="0" stop-color="#53d8ff"/>
      <stop offset="1" stop-color="#3840f7"/>
    </linearGradient>
    <linearGradient id="Yeni_Degrade_Renk_Örneği_2" data-name="Yeni Degrade Renk Örneği 2" x1="1670.94" y1="367.91" x2="1427.49" y2="1852.92" gradientUnits="userSpaceOnUse">
      <stop offset="0" stop-color="#f1b6b1"/>
      <stop offset="1" stop-color="#f0aeaf"/>
    </linearGradient>
    <linearGradient id="linear-gradient-5" x1="-5851.22" y1="3150.64" x2="-5486.24" y2="2211.04" gradientTransform="matrix(-1, 0, 0, 1, -3446.32, 0)" gradientUnits="userSpaceOnUse">
      <stop offset="0" stop-color="#f9b776"/>
      <stop offset="1" stop-color="#f47960"/>
    </linearGradient>
    <linearGradient id="linear-gradient-6" x1="-5856.76" y1="6172.9" x2="-4650.44" y2="-7925.99" xlink:href="#linear-gradient-5"/>
    <linearGradient id="linear-gradient-7" x1="-5813.4" y1="1664.2" x2="-5658.69" y2="1664.2" xlink:href="#linear-gradient-5"/>
    <linearGradient id="linear-gradient-8" x1="-5310.56" y1="3177.28" x2="-4942.54" y2="2612.65" gradientTransform="matrix(-1, 0, 0, 1, -3211.16, 0)" gradientUnits="userSpaceOnUse">
      <stop offset="0" stop-color="#cb236d"/>
      <stop offset="1" stop-color="#4c246d"/>
    </linearGradient>
    <linearGradient id="linear-gradient-9" x1="-5642.16" y1="3349.24" x2="-5233.8" y2="2643.44" xlink:href="#linear-gradient-8"/>
    <linearGradient id="linear-gradient-10" x1="3144.55" y1="1893" x2="2630.25" y2="2891.35" gradientTransform="translate(-893.1)" xlink:href="#linear-gradient-8"/>
    <linearGradient id="linear-gradient-11" x1="-5644.44" y1="1319.02" x2="-5534.57" y2="1319.02" xlink:href="#linear-gradient-5"/>
    <linearGradient id="linear-gradient-12" x1="-5446.48" y1="1438.06" x2="-6028.33" y2="2184.51" gradientTransform="matrix(-1, 0, 0, 1, -3446.32, 0)" gradientUnits="userSpaceOnUse">
      <stop offset="0" stop-color="#fdf53f"/>
      <stop offset="1" stop-color="#d93c65"/>
    </linearGradient>
    <linearGradient id="linear-gradient-13" x1="-4999.78" y1="1381.66" x2="-5950.08" y2="1926.07" xlink:href="#linear-gradient-5"/>
    <linearGradient id="linear-gradient-14" x1="-4905.35" y1="1546.48" x2="-5855.66" y2="2090.9" xlink:href="#linear-gradient-5"/>
    <linearGradient id="linear-gradient-15" x1="-5461.44" y1="1318.97" x2="-5674.96" y2="1006.75" xlink:href="#linear-gradient-5"/>
    <linearGradient id="linear-gradient-16" x1="-5339.37" y1="1095.9" x2="-5641.85" y2="1489.13" gradientTransform="matrix(-1, 0, 0, 1, -3211.16, 0)" xlink:href="#linear-gradient-3"/>
    <linearGradient id="Yeni_Degrade_Renk_Örneği_2-2" x1="3060.11" y1="-34.5" x2="2634.1" y2="1538.45" xlink:href="#Yeni_Degrade_Renk_Örneği_2"/>
    <linearGradient id="Adsız_degrade_7" data-name="Adsız degrade 7" x1="2945.98" y1="554.35" x2="2427.1" y2="1775.09" gradientUnits="userSpaceOnUse">
      <stop offset="0" stop-color="#f7dfb9"/>
      <stop offset="0.48" stop-color="#f0aeaf"/>
    </linearGradient>
    <linearGradient id="Yeni_Degrade_Renk_Örneği_2-3" x1="2896.1" y1="143.36" x2="2775.94" y2="1309.48" xlink:href="#Yeni_Degrade_Renk_Örneği_2"/>
  </defs>
  <g id="Background">
    <rect width="3710" height="3710" fill="#fff"/>
  </g>
  <g id="Illustration">
    <g>
      <path d="M2918.47,2809.68c-57.28,59.56-111.47,98-154.29,128.32-503.3,356.75-1098.83,252.76-1225.4,227.37-186.9-37.5-548.18-110-809.38-413.43-395.17-459.09-333.63-1182.36-27.11-1659.8,56.06-87.33,352.23-572,954.18-649.78,364.29-47,788.94,47.84,1096.46,302.36C3398.45,1279,3352.49,2358.28,2918.47,2809.68Z" opacity="0.3" fill="url(#linear-gradient)"/>
      <g>
        <g>
          <path d="M1867.18,3085.2s549.59-1388.39,1366-1540.06a22.87,22.87,0,0,1,27,23.61C3251.94,1740,3147.36,2646.37,1867.18,3085.2Z" opacity="0.81" fill="url(#linear-gradient-2)"/>
          <path d="M3086.54,1770.34c-41.69,59.49-85.38,117.42-129.67,174.92-11.06,14.38-22.36,28.57-33.53,42.87s-22.27,28.64-33.72,42.72l-34.24,42.31c-11.46,14.05-22.69,28.32-34.43,42.14-23.33,27.8-46.43,55.78-69.94,83.41L2679.74,2281c-48.36,54.11-96.68,108.27-146.51,161l-37.09,39.85c-12.22,13.43-25.17,26.15-37.71,39.26l-75.71,78.28-77.65,76.36c-13,12.7-25.82,25.54-39,38L2226,2750.67c-26.76,24.54-53.24,49.4-80.44,73.44L2062.8,2895l-20.77,17.6c-7,5.8-13.77,11.84-20.91,17.44l-42.74,33.78c-14.2,11.31-28.6,22.36-42.9,33.54s-28.63,22.31-43,33.33a2.51,2.51,0,0,1-3.17-3.9l.07-.06q20.65-17.73,41.49-35.19c13.88-11.65,27.65-23.44,41.62-35l41.79-34.75c13.78-11.76,27.13-24,40.8-35.91l81.83-71.52L2217,2741l40.11-36.67c6.7-6.1,13.08-12.53,19.65-18.77l19.66-18.76,78.63-75.06c51.14-51.35,103.14-101.9,152.52-155,24.94-26.31,50.18-52.34,74.27-79.43,24.3-26.91,48.82-53.61,72.93-80.68l71.52-81.93c23.6-27.53,46.79-55.39,70.2-83.07,11.79-13.77,23.06-28,34.57-42l34.37-42.15c11.5-14,22.56-28.37,33.86-42.55s22.56-28.38,33.67-42.71c44.24-57.42,87.87-115.4,129.42-174.74l0,0a2.52,2.52,0,0,1,4.13,2.89Z" fill="#fff" opacity="0.62"/>
        </g>
        <g opacity="0.79">
          <path d="M1734,2288.94s267.17-1226,1073.72-1861.56a18.39,18.39,0,0,1,29.29,9.95C2887.75,642.63,3151.9,1952.06,1734,2288.94Z" fill="url(#New_Gradient_Swatch_20)"/>
          <path d="M2722.08,781.07c-9.26,35.56-20,70.6-31.4,105.48s-23.36,69.55-36.08,104q-38.26,103.18-83.23,203.74c-7.43,16.78-15.26,33.37-22.87,50.07s-15.93,33.06-23.86,49.6-16.4,32.83-24.66,49.21l-12.51,24.52-12.94,24.29c-34.48,64.8-70.8,128.66-109.94,190.78s-80.06,123.15-124.08,181.94c-5.46,7.38-10.8,14.85-16.34,22.17l-16.88,21.75-16.89,21.75c-5.66,7.22-11.16,14.58-17.09,21.59l-35.07,42.46-8.81,10.59-9.12,10.31-18.25,20.63a2145.87,2145.87,0,0,1-322.3,299,2.19,2.19,0,0,1-2.71-3.45l0,0,42.54-34.69,21.29-17.29,20.62-18.1,41.18-36.23,39.8-37.74c6.59-6.33,13.38-12.45,19.87-18.89l19.28-19.5c12.79-13.06,25.84-25.85,38.41-39.12,24.7-26.95,50-53.36,73.49-81.36l17.93-20.73,9-10.37,8.64-10.63,34.68-42.46c5.88-7,11.33-14.34,16.93-21.55l16.73-21.71,16.73-21.71c5.49-7.31,10.78-14.76,16.18-22.13,43.6-58.68,84-119.68,122.86-181.58,39.07-61.79,75.58-125.19,110.14-189.63l13-24.15,12.55-24.38c8.29-16.29,16.84-32.45,24.75-48.94,16.23-32.77,31.9-65.81,47.33-99q45.91-99.65,85.32-202.16,20-51.11,37.92-103,9-25.92,17.44-52c5.7-17.37,11.14-34.87,16.18-52.4v0a2.19,2.19,0,0,1,4.22,1.16Z" fill="#fff" opacity="0.62"/>
        </g>
      </g>
      <g opacity="0.76">
        <path d="M1314.85,2223.14S1210.66,1135.55,579.09,502.68a16,16,0,0,0-26.36,5.58C487.64,680.5,123.85,1785.25,1314.85,2223.14Z" fill="url(#New_Gradient_Swatch_20-2)"/>
        <path d="M620.61,816.76c10.78,62.71,24.73,125,40.67,186.62q23.55,92.59,53,183.52c9.94,30.24,20.08,60.42,30.73,90.41,5.13,15.07,10.86,29.92,16.35,44.86l8.33,22.37,8.73,22.21c23.22,59.26,48.25,117.82,75.63,175.26,27.18,57.52,55.77,114.43,87.37,169.66,3.9,6.93,7.7,13.91,11.69,20.8l12.2,20.49,12.21,20.5c4.1,6.82,8,13.73,12.4,20.38l25.57,40.29,6.36,10.09,6.67,9.89,13.34,19.79c17.4,26.64,36.5,52.1,55,78,9.47,12.77,19.42,25.19,29.12,37.81l14.63,18.85c4.94,6.24,10.17,12.24,15.2,18.4l30.45,36.77,31.8,35.62,15.92,17.8,16.6,17.17,33.12,34.45,0,0a2.19,2.19,0,0,1-3.09,3.1,1858.67,1858.67,0,0,1-248.14-291.6l-13.66-19.72-6.83-9.86-6.53-10.06-25.95-40.34c-4.41-6.68-8.4-13.61-12.55-20.44l-12.36-20.55-12.37-20.56c-4-6.9-7.88-13.91-11.83-20.86-32-55.39-61-112.46-88.54-170.16s-52.2-116.77-75.3-176.38L758,1349l-8.27-22.5c-5.45-15-11.13-30-16.22-45.12s-10.6-30.16-15.5-45.37-9.88-30.39-14.55-45.67c-37.55-122.15-68.74-246.41-87.15-373a2.19,2.19,0,0,1,4.32-.69Z" fill="#fff" opacity="0.62"/>
      </g>
      <g>
        <path d="M754.79,567.36c-9,426.79-38.37,1899-24.37,2420.64,1.48,55.27,39.36,99.63,86.6,101.44,233.66,8.94,1090.23,31.62,1472.42,12.86,79.6-3.91,142.9-79.34,144.55-172.53,8-448,25.47-1707.94-16.18-2285.14-5-69.15-51.39-124.22-110.42-131.13C2052.93,483.72,1192.67,410.92,862.48,436,802.93,440.51,756.27,497.57,754.79,567.36Z" fill="url(#linear-gradient-3)"/>
        <path d="M859.05,698.3c-12.58,344.49-52.25,1490.5-39.66,1914.27,1.84,61.95,43.57,112,96.46,115.65,217.76,14.91,960.69,47.78,1280.09,17.86,57.51-5.39,102.64-59.8,105.75-127.2,16.18-351.45,62.66-1418.55,50.59-1837.57-1.93-66.85-46.19-121.44-103.13-127.42-235.58-24.74-1025-83.62-1296.45-66.3C901.75,590.85,861.23,638.67,859.05,698.3Z" fill="url(#Adsız_degrade_9)"/>
        <path d="M1443.17,520.65h0c0,13.09,8.72,23.89,19.9,24.58,55.19,3.38,210.65,12.95,280.13,17.66,13.7.93,24.46-13.47,21.86-29.24l-.45-2.69c-1.77-10.75-9.39-18.85-18.72-19.85-47-5-188.68-19-282.57-15.07C1452,496.51,1443.17,507.44,1443.17,520.65Z" opacity="0.61" fill="url(#linear-gradient-4)"/>
        <g>
          <g>
            <circle cx="1551.76" cy="1094.9" r="325.91" fill="url(#Yeni_Degrade_Renk_Örneği_2)"/>
            <path d="M1651.54,971.75c0,55.19-44.74,114.76-99.92,114.76s-99.92-59.57-99.92-114.76,44.73-94.34,99.92-94.34S1651.54,916.57,1651.54,971.75Z" fill="#fff"/>
            <path d="M1427.62,1299h243.92a59.06,59.06,0,0,0,56.24-41l13.12-41c9.61-30-6-62.56-35.63-73.39-99.27-36.29-201.92-31.64-307.07,3.35-29.46,9.8-45.8,41.31-37.67,71.28l10.1,37.25A59,59,0,0,0,1427.62,1299Z" fill="#fff"/>
          </g>
          <g opacity="0.71">
            <rect x="980.82" y="1756.28" width="1202.61" height="185.02" rx="6.75" fill="#fff" opacity="0.65"/>
            <rect x="974.33" y="2058.15" width="1202.61" height="185.02" rx="6.75" fill="#fff" opacity="0.65"/>
            <rect x="1169.35" y="2367.33" width="776.9" height="235.88" rx="8.33" fill="#fff" opacity="0.65"/>
          </g>
          <rect x="1034.09" y="1798.19" width="716.3" height="102.79" rx="12" fill="#fff" opacity="0.75"/>
          <g opacity="0.75">
            <circle cx="1058.97" cy="2145.51" r="42.2" transform="translate(-740.44 568.57) rotate(-22.5)" fill="#fff"/>
            <circle cx="1174.75" cy="2147.68" r="42.2" transform="translate(-732.46 613.04) rotate(-22.5)" fill="#fff"/>
            <circle cx="1286.19" cy="2153.09" r="42.2" transform="translate(-726.05 656.1) rotate(-22.5)" fill="#fff"/>
            <circle cx="1401.98" cy="2155.25" r="42.2" transform="translate(-1113.37 1622.61) rotate(-45)" fill="#fff"/>
            <circle cx="1517.74" cy="2154.17" r="42.2" transform="matrix(0.23, -0.97, 0.97, 0.23, -927.5, 3136.38)" fill="#fff"/>
            <circle cx="1633.53" cy="2156.33" r="42.2" transform="translate(-756.62 3423.36) rotate(-80.78)" fill="#fff"/>
          </g>
        </g>
      </g>
      <g>
        <path d="M2115.42,2294.08l129.27,32.32-32.31,242.4s48.48,48.48,64.64,113.12S2308.08,3018,2308.08,3018l30.67,18.54,3.73,15.48-89.24,120,14.8-95.51c2.35-15.16-1.72-45.9-.44-46.55-48.48-129.28-152.18-493.46-152.18-493.46Z" fill="url(#linear-gradient-5)"/>
        <path d="M2077.64,3053.67c1.4,0,2.78.08,4.18,0-6.25-77.94-34.8-421-63.36-549.51-32.32-145.44,48.47-436.32,48.47-436.32l145.45,145.44L2131.58,2488c55.37,83.06-9,569.47-7.65,569.25l-.09,1.09,21.09,29-2.57,15.72-128.79,76,50.67-82.29A92.46,92.46,0,0,0,2077.64,3053.67Z" fill="url(#linear-gradient-6)"/>
        <path d="M2241.23,1422.81s283.17,319.15,0,482.79l-28.85-20.89s140.58-134.63,0-299.43Z" fill="url(#linear-gradient-7)"/>
        <path d="M2005.08,3191h41.11a24.77,24.77,0,0,0,19.64-9.62c12.81-16.65,39.36-49.14,52.05-50,17.09-1.15,14.9,59.6,14.9,59.6h9.58l12.13-75.48a44.67,44.67,0,0,0-23.45-46.71h0s-3.9,28.89-25.08,41.66-86.19,58.54-86.19,58.54a58.89,58.89,0,0,0-16.71.45C1990.09,3171.76,1991.9,3191,2005.08,3191Z" fill="url(#linear-gradient-8)"/>
        <path d="M2250,3186.28l37.89-15.94a24.73,24.73,0,0,0,14.37-16.49c5.35-20.31,17.22-60.55,28.6-66.25,15.3-7.68,36.85,49.16,36.85,49.16l8.83-3.71-18.09-74.29a44.69,44.69,0,0,0-39.73-34h0s7.6,28.14-7,48.13-56.74,87.38-56.74,87.38a59.1,59.1,0,0,0-15.23,6.89C2228.78,3174.39,2237.89,3191.39,2250,3186.28Z" fill="url(#linear-gradient-9)"/>
        <path d="M2029.9,1821.92s4.75,29.13-2.21,109.21-40.25,268.09-33.48,448c0,0,94.63,22.05,259,11.61,0,0,69.38-280.86,52.47-387.63s-108.58-183.36-108.58-183.36Z" fill="url(#linear-gradient-10)"/>
        <polygon points="2099.82 1286.82 2088.25 1422.81 2198.13 1422.81 2170.81 1215.23 2099.82 1286.82" fill="url(#linear-gradient-11)"/>
        <path d="M2230.68,1404c-37.92-2.09-122.71-6-182.77-2.69a69.8,69.8,0,0,0-64.59,55.42l-14.64,70.2a169,169,0,0,0,2.38,79l58.84,216s52.33,31.45,167.23-2.2c0,0,100.9-240.62,59.6-394.54A28.6,28.6,0,0,0,2230.68,1404Z" fill="url(#linear-gradient-12)"/>
        <path d="M1986.2,1444.14c-16.19,42.63-30.81,87.33-46.51,129.2-8,21-16.09,41.5-24.75,60.37-4.38,9.39-9.2,18-13.62,25.85a113.9,113.9,0,0,1-12,17.17c-.51.44,1.2.77,1.77.8.34,0-10.94,1.85-14.4,2.43l-13.53-.08c-19.39-1-41.35-4.42-63.37-8.7-44.42-8.28-90.61-19.91-138-28.71l-.36-.06a16.71,16.71,0,0,0-14.09,29c19.12,16.84,39.39,30.66,60.41,44.12,10.59,6.47,21.36,12.82,32.3,18.91,11.16,5.69,22.35,11.42,34,16.72,23.41,10.2,47.58,19.6,75.44,25.63,7.32,1.23,14.54,2.51,22.07,3.52,8.45.29,16.12,1,25.35.51,4.9-.49,9.82-1.09,14.73-1.8a65.12,65.12,0,0,0,7.72-1.39c3.36-1,6.72-2.14,10-3.38,6.91-2.48,11.39-5.49,17-8.62,4.67-3.07,8.92-6.29,13.05-9.59,15.23-13,24.68-25.84,33-38.2a303.44,303.44,0,0,0,20.81-36.84,503.51,503.51,0,0,0,28.64-72.39c15.23-48.42,25.55-96,29.9-146.56a44,44,0,0,0-85-19.44Z" fill="url(#linear-gradient-13)"/>
        <path d="M1676.68,1664.2l-19.61-46.54-103.2-25.72s-8.25,17.89,35.09,25.72c0,0-15.48,17.11-7.22,37.23S1677.71,1695.18,1676.68,1664.2Z" fill="url(#linear-gradient-14)"/>
        <path d="M2053.29,1129.76c-3.92,2.32-34.83,111.34-8.93,157.06s105-5.49,126.45-71.59S2157.8,1068.13,2053.29,1129.76Z" fill="url(#linear-gradient-15)"/>
        <path d="M2258.32,1215.23c17.74,86.93,76.53,63.14,118.17,101.81,67.48,62.69,164-1.93,257.88,57.47,67.76,42.88,100.4,152.6,67.89,241.18-45,122.68-198.94,173.14-278.69,135.77-76.23-35.71-65.38-142.67-167.93-184-43.55-17.55-65-6.14-91.12-32.16-45.64-45.53-33.32-133.89-28.58-167.92,10.3-73.87,35.06-87.24,23.22-119.7-23-63.14-130.39-50.11-139.34-94.68-8.15-40.59,69.68-117.53,142.92-105.41C2276.06,1066.34,2250.41,1176.5,2258.32,1215.23Z" fill="url(#linear-gradient-16)"/>
        <path d="M2668.42,1594.91a3,3,0,0,0,2.88-2.27c14.51-60.23,7.93-109.63-19.57-146.82-45.64-61.73-134.33-67.84-135.22-67.89a3,3,0,0,0-3.14,2.78,3,3,0,0,0,2.78,3.14c.86.06,86.87,6,130.83,65.53,26.39,35.71,32.63,83.44,18.55,141.87a3,3,0,0,0,2.19,3.58A3.34,3.34,0,0,0,2668.42,1594.91Z" fill="#fff" opacity="0.6"/>
        <path d="M2377.93,1650.05a1.57,1.57,0,0,0,.37,0,1.49,1.49,0,0,0,1.06-1.81c-14.13-54.23-38.93-91.88-73.69-111.94-25.3-14.59-49-15.94-69.87-17.14-20.15-1.16-37.55-2.16-51.56-14.61-28.94-25.75-27.27-87.64,5-184a1.49,1.49,0,0,0-2.82-.94c-32.67,97.56-34.06,160.51-4.14,187.12,14.78,13.14,32.65,14.17,53.36,15.36,20.56,1.18,43.87,2.52,68.55,16.76,34.06,19.63,58.39,56.68,72.31,110.11A1.48,1.48,0,0,0,2377.93,1650.05Z" fill="#fff" opacity="0.72"/>
        <path d="M2216.34,1193.65a1.58,1.58,0,0,0,.47-.07,1.5,1.5,0,0,0,.94-1.89c-11.24-33.42-43.61-28.45-77.9-23.18-21.71,3.34-44.15,6.77-63.18,1.14-14.2-4.21-22.64-10.73-25.08-19.4-4.17-14.74,10.42-31.19,10.57-31.36a1.48,1.48,0,1,0-2.2-2c-.65.72-15.83,17.81-11.23,34.14,2.73,9.71,11.85,16.92,27.09,21.44,19.68,5.83,42.45,2.34,64.48-1,34.42-5.28,64.19-9.86,74.63,21.2A1.49,1.49,0,0,0,2216.34,1193.65Z" fill="#fff" opacity="0.72"/>
      </g>
      <g>
        <path d="M2543.39,856c0-153,129.6-277,285.12-277,150.93,0,270,117.5,270,262.4s-119.11,268.64-270,276.59C2673,1126.23,2543.39,1009,2543.39,856Z" fill="url(#Yeni_Degrade_Renk_Örneği_2-2)"/>
        <path d="M2569.4,855.35c0-138.65,117.45-251,258.4-251,136.79,0,244.74,106.48,244.74,237.81S2964.59,1085.6,2827.8,1092.8C2686.85,1100.23,2569.4,994,2569.4,855.35Z" fill="url(#Adsız_degrade_7)"/>
        <g>
          <path d="M2744.09,839.63h-23.16V747.35A71.85,71.85,0,0,1,2784,676.09l47.35-5.75a71.78,71.78,0,0,1,80.44,71.25v80.57h-23.16V741.59a48.62,48.62,0,0,0-54.48-48.26l-47.35,5.75a48.66,48.66,0,0,0-42.75,48.27Z" fill="#fff"/>
          <path d="M2714.08,818.91l203-11.24A14.38,14.38,0,0,1,2932.26,822V982.85a14.38,14.38,0,0,1-14.38,14.38H2719.76a14.38,14.38,0,0,1-14.38-13.92l-4.88-149.57A14.39,14.39,0,0,1,2714.08,818.91Z" fill="#fff"/>
          <path d="M2849.47,951.16l-12.29-35.32a11.85,11.85,0,0,1,2.69-12.2,33.45,33.45,0,1,0-44.87,2.5,11.93,11.93,0,0,1,3.88,13.17l-11.08,31.85A11.92,11.92,0,0,0,2799.06,967h39.15A11.92,11.92,0,0,0,2849.47,951.16Z" fill="url(#Yeni_Degrade_Renk_Örneği_2-3)"/>
        </g>
      </g>
    </g>
  </g>
</svg>
