<svg id="Illustration" xmlns="http://www.w3.org/2000/svg" xmlns:xlink="http://www.w3.org/1999/xlink" viewBox="0 0 3710 3710">
  <defs>
    <linearGradient id="linear-gradient" x1="3560.04" y1="4066.5" x2="1078.81" y2="984.97" gradientUnits="userSpaceOnUse">
      <stop offset="0" stop-color="#b37cff"/>
      <stop offset="1" stop-color="#f895e7"/>
    </linearGradient>
    <linearGradient id="linear-gradient-2" x1="2810.13" y1="2272.21" x2="1280.33" y2="4205.33" gradientTransform="translate(-201.18 80.38) rotate(-14.26)" gradientUnits="userSpaceOnUse">
      <stop offset="0" stop-color="#cb236d"/>
      <stop offset="1" stop-color="#4c246d"/>
    </linearGradient>
    <linearGradient id="linear-gradient-3" x1="1716.04" y1="1681.47" x2="252.34" y2="3531.04" gradientTransform="translate(343.65 352.62) rotate(-30.83)" gradientUnits="userSpaceOnUse">
      <stop offset="0" stop-color="#a737d5"/>
      <stop offset="1" stop-color="#ef497a"/>
    </linearGradient>
    <linearGradient id="linear-gradient-4" x1="902.04" y1="2020.27" x2="2555.78" y2="2020.27" gradientUnits="userSpaceOnUse">
      <stop offset="0" stop-color="#2b3582"/>
      <stop offset="1" stop-color="#150e42"/>
    </linearGradient>
    <linearGradient id="linear-gradient-5" x1="2146.02" y1="1393.1" x2="-1187.69" y2="5657.74" gradientUnits="userSpaceOnUse">
      <stop offset="0" stop-color="#fdf53f"/>
      <stop offset="0.66" stop-color="#e57a58"/>
      <stop offset="1" stop-color="#d93c65"/>
    </linearGradient>
    <linearGradient id="linear-gradient-6" x1="1524.54" y1="714.63" x2="1515.28" y2="1613.37" gradientTransform="matrix(1, 0, 0, 1, 0, 0)" xlink:href="#linear-gradient-3"/>
    <linearGradient id="linear-gradient-7" x1="-3704.53" y1="-1917.35" x2="-3343.06" y2="-1078.46" gradientTransform="matrix(-1, 0, 0, 1, -1165.43, 0)" xlink:href="#linear-gradient-4"/>
    <linearGradient id="linear-gradient-8" x1="986.38" y1="2159.99" x2="1324.02" y2="1721.47" gradientUnits="userSpaceOnUse">
      <stop offset="0" stop-color="#f9b776"/>
      <stop offset="1" stop-color="#f47960"/>
    </linearGradient>
    <linearGradient id="linear-gradient-9" x1="-1777.18" y1="3200.32" x2="-1702.28" y2="3200.32" gradientTransform="matrix(-1, 0, 0, 1, -1165.43, 0)" xlink:href="#linear-gradient-3"/>
    <linearGradient id="linear-gradient-10" x1="-2093.65" y1="3495.67" x2="-1985.87" y2="2235.99" gradientTransform="matrix(-1, 0, 0, 1, -1165.43, 0)" xlink:href="#linear-gradient-8"/>
    <linearGradient id="linear-gradient-11" x1="-2125.13" y1="3186.65" x2="-2003.95" y2="3186.65" gradientTransform="matrix(-1, 0, 0, 1, -1165.43, 0)" xlink:href="#linear-gradient-3"/>
    <linearGradient id="linear-gradient-12" x1="-1876.84" y1="3514.41" x2="-1769.03" y2="2254.41" gradientTransform="matrix(-1, 0, 0, 1, -1165.43, 0)" xlink:href="#linear-gradient-8"/>
    <linearGradient id="linear-gradient-13" x1="924.71" y1="2222.06" x2="1267.52" y2="1443.77" gradientTransform="matrix(1, 0, 0, 1, 0, 0)" xlink:href="#linear-gradient-3"/>
    <linearGradient id="linear-gradient-14" x1="-1794.12" y1="2249.91" x2="-2063.58" y2="2681.05" gradientTransform="matrix(-1, 0, 0, 1, -1165.43, 0)" xlink:href="#linear-gradient-5"/>
    <linearGradient id="linear-gradient-15" x1="938.05" y1="1849.02" x2="903.05" y2="2190.78" xlink:href="#linear-gradient-8"/>
    <linearGradient id="linear-gradient-16" x1="-2298.67" y1="1761.89" x2="-2122.01" y2="1447.51" gradientTransform="matrix(-0.98, -0.19, -0.19, 0.98, -936.34, -99.24)" xlink:href="#linear-gradient-8"/>
    <linearGradient id="linear-gradient-17" x1="-3886.42" y1="-2276.87" x2="-3524.95" y2="-1437.98" gradientTransform="matrix(-0.98, -0.19, -0.19, 0.98, -936.34, -99.24)" xlink:href="#linear-gradient-4"/>
    <linearGradient id="linear-gradient-18" x1="-2261.06" y1="1783.02" x2="-2084.41" y2="1468.64" gradientTransform="matrix(-0.98, -0.19, -0.19, 0.98, -936.34, -99.24)" xlink:href="#linear-gradient-8"/>
    <linearGradient id="linear-gradient-19" x1="1007.47" y1="2176.22" x2="1345.1" y2="1737.71" xlink:href="#linear-gradient-8"/>
    <linearGradient id="linear-gradient-20" x1="1263.45" y1="1808.68" x2="1294.33" y2="1600.74" xlink:href="#linear-gradient-8"/>
    <linearGradient id="linear-gradient-21" x1="515.24" y1="2368.47" x2="874.8" y2="2368.47" xlink:href="#linear-gradient-8"/>
    <linearGradient id="linear-gradient-22" x1="2466.81" y1="182.47" x2="577.24" y2="3294.71" gradientTransform="matrix(1, 0, 0, 1, 0, 0)" xlink:href="#linear-gradient-2"/>
    <linearGradient id="linear-gradient-23" x1="2611.05" y1="270.05" x2="721.49" y2="3382.28" gradientTransform="matrix(1, 0, 0, 1, 0, 0)" xlink:href="#linear-gradient-2"/>
    <linearGradient id="linear-gradient-24" x1="1389.8" y1="1177.13" x2="1292.53" y2="2112.77" gradientTransform="translate(97.33 47.54) rotate(1.84)" xlink:href="#linear-gradient-3"/>
    <linearGradient id="linear-gradient-25" x1="1522.94" y1="1190.96" x2="1425.67" y2="2126.61" gradientTransform="translate(97.33 47.54) rotate(1.84)" xlink:href="#linear-gradient-3"/>
    <linearGradient id="linear-gradient-26" x1="1665.19" y1="1205.75" x2="1567.92" y2="2141.4" gradientTransform="translate(97.33 47.54) rotate(1.84)" xlink:href="#linear-gradient-3"/>
    <linearGradient id="linear-gradient-27" x1="1947.2" y1="1235.07" x2="1849.93" y2="2170.72" gradientTransform="translate(97.33 47.54) rotate(1.84)" xlink:href="#linear-gradient-3"/>
    <linearGradient id="linear-gradient-28" x1="2089.44" y1="1249.86" x2="1992.17" y2="2185.5" gradientTransform="translate(97.33 47.54) rotate(1.84)" xlink:href="#linear-gradient-3"/>
    <linearGradient id="linear-gradient-29" x1="1798.33" y1="1219.59" x2="1701.06" y2="2155.24" gradientTransform="translate(97.33 47.54) rotate(1.84)" xlink:href="#linear-gradient-3"/>
  </defs>
  <g>
    <path d="M2877.44,2851.26c-57,60-110.92,98.69-153.52,129.26-500.83,359.35-1093.44,254.6-1219.39,229-186-37.77-545.48-110.79-805.39-416.44-393.23-462.43-332-1191-27-1671.89,55.8-88,350.5-576.21,949.5-654.51,362.5-47.39,785.06,48.19,1091.07,304.56C3355.06,1309.41,3309.33,2396.58,2877.44,2851.26Z" opacity="0.3" fill="url(#linear-gradient)"/>
    <g>
      <g>
        <path d="M3233.06,1461.4c-.11-16.63-22.49-22.07-30.15-7.32-74.11,142.62-280.15,510.5-514.37,679.66-381.38,275.44-703.2,784.75-564.08,1112.35C2124.46,3246.09,3245,3272.7,3233.06,1461.4Z" fill="url(#linear-gradient-2)"/>
        <path d="M3158.06,1671.31c-1.42,4.87-3,8.78-4.46,13l-4.67,12.51-9.59,24.89c-6.51,16.54-13.27,33-20,49.41q-20.47,49.23-42,98c-28.82,65-59.39,129.19-90.92,192.92s-64.67,126.67-99.21,188.84-70.09,123.8-107.59,184.26c-74.76,121.06-156.16,238.17-245.52,349.05-45.25,55-92,108.77-141.69,159.75-50.09,50.61-102.35,99.11-157.91,143.59a2.81,2.81,0,0,1-3.59-4.31l0,0A2066.7,2066.7,0,0,0,2384,2936c48.63-51.5,94.22-105.77,138.33-161.15s85.95-112.61,126.49-170.7,78.62-117.89,116.36-177.85c75-120.29,143.56-244.54,208.64-370.54q48.61-94.62,93.55-191.09,22.58-48.18,44.17-96.81l21.14-48.81,10.32-24.51,5-12.29c1.58-4,3.35-8.39,4.58-12l.21-.6a2.78,2.78,0,0,1,5.29,1.68Z" fill="#fff" opacity="0.43"/>
      </g>
      <g>
        <path d="M2782.09,757.78c-4.64-15.22-26.64-14.1-29.64,1.52-29.06,151-117.64,544.58-286.3,763.6-274.6,356.63-430.78,911.49-213.83,1174C2252.32,2696.86,3287.17,2415.58,2782.09,757.78Z" fill="url(#linear-gradient-3)"/>
        <path d="M2770.63,970.74c0,4.86-.33,8.86-.53,13.19l-.86,12.75-2,25.44c-1.46,16.94-3.17,33.86-4.88,50.78q-5.33,50.73-11.8,101.34c-8.68,67.46-19.2,134.67-30.72,201.72s-24.74,133.81-39.46,200.25-30.49,132.65-48.39,198.34c-35.52,131.41-78.24,261-129.94,387.08-26.52,62.75-54.69,124.84-86.4,185.15-32.14,60.07-66.84,118.8-105.68,174.73a2.73,2.73,0,0,1-4.55-3l0,0a1980.91,1980.91,0,0,0,100.16-176.84c30.54-60.49,57.53-122.7,82.87-185.52s48.09-126.71,69.41-191,39.92-129.55,58.19-194.84c36-130.76,64.94-263.4,90.27-396.7q18.78-100,33.68-200.75,7.58-50.34,14.11-100.82l6.09-50.53,2.79-25.29,1.25-12.64c.35-4.15.78-8.61.94-12.24l0-.61a2.71,2.71,0,0,1,5.41.1Z" fill="#fff" opacity="0.43"/>
      </g>
    </g>
    <g>
      <path d="M932.34,911.41C922.59,1304.86,891,2662,906.06,3143a96.56,96.56,0,0,0,93.39,93.52c252,8.24,976.92,29.14,1389.1,11.85a162.59,162.59,0,0,0,155.9-159.05c8.57-413,27.46-1574.53-17.45-2106.64a132.71,132.71,0,0,0-119.09-120.9c-274.43-27.45-1003.33-94.56-1359.42-71.45A124.36,124.36,0,0,0,932.34,911.41Z" fill="url(#linear-gradient-4)"/>
      <path d="M1034.74,1033.66C1021,1355.9,977.56,2427.9,991.34,2824.31a112.16,112.16,0,0,0,105.56,108.17c238.29,13.95,849.49,44.69,1199,16.71a126.07,126.07,0,0,0,115.72-119c17.71-328.75,68.56-1326.93,55.36-1718.89a123.92,123.92,0,0,0-112.86-119.19c-257.8-23.15-919.9-78.22-1216.91-62A108.38,108.38,0,0,0,1034.74,1033.66Z" fill="url(#linear-gradient-5)"/>
      <path d="M1555.12,859.05h0a22.66,22.66,0,0,0,21.47,22.66c59.52,3.12,227.19,11.94,302.12,16.28a22.67,22.67,0,0,0,23.57-27l-.48-2.48a22.67,22.67,0,0,0-20.19-18.3c-50.65-4.64-203.49-17.51-304.75-13.9A22.64,22.64,0,0,0,1555.12,859.05Z" fill="#fff" opacity="0.5"/>
    </g>
    <path d="M2221.81,2195.59l-1013.14-19.45c-33-.63-57.9,37.84-55.17,85.49,2.7,47.18,37.15,61.4,69.52,60.9l991.13,7.93c20.3-.31,38.41-30.14,40.64-66.88C2257,2226.54,2242.37,2196,2221.81,2195.59Z" fill="#fff" opacity="0.8"/>
    <path d="M2224.56,2506.35,1211.42,2486.9c-33-.64-57.91,37.84-55.18,85.49,2.7,47.17,37.15,61.39,69.53,60.9l991.12,7.93c20.31-.31,38.41-30.14,40.64-66.88C2259.78,2537.3,2245.11,2506.74,2224.56,2506.35Z" fill="#fff" opacity="0.8"/>
    <path d="M1789.57,2238.09l-549.83-5.71c-17.92-.19-31.4,10.13-29.9,22.93s20.19,16.51,37.76,16.39l537.88,2.61c11-.07,20.82-8.07,22-17.94S1800.73,2238.21,1789.57,2238.09Z" fill="url(#linear-gradient-6)"/>
    <g>
      <path d="M882.24,1901.06s-29.77,14.49-35.25,31.12c-4.39,13.35-37.31,15.07-40.57,41.33-1.68,13.55-11.71,24.41-25.21,26.48-33.62,5.15-85.45,22.62-93.74,81-6.33,44.56,16.39,61.46,40.23,67.31,17.51,4.3,29.15,21.33,25.61,39-3.4,17,1.67,36.56,31,52.06,65.84,34.74,131.58-82.3,131.58-82.3l13.47-204.34Z" fill="url(#linear-gradient-7)"/>
      <path d="M1240.45,1852.62S1109,2060.52,952.71,2100.68c0,0,30.46,86.74,54,96.67,0,0,192.3-160.45,241.71-315.19Z" fill="url(#linear-gradient-8)"/>
      <path d="M611.65,3182.36l-4.26,35A14.47,14.47,0,0,1,594.7,3230c-11.22,1.28-29.24,2.6-46.87.73a12.39,12.39,0,0,1-10.4-16.07c4.3-13.51,12.16-33.81,23.49-45.75h38.85A12,12,0,0,1,611.65,3182.36Z" fill="url(#linear-gradient-9)"/>
      <path d="M915.93,2772.12l6.56,38.57s-22,222.42-25.87,311.39a69.75,69.75,0,0,0,10.32,39.62l38.18,62-97-57.26-1.93-11.84L862,3132.76l-20.81-249.17a76.49,76.49,0,0,1,8.7-42.28L870,2803.6Z" fill="url(#linear-gradient-10)"/>
      <path d="M951.51,3232.68h-31a18.64,18.64,0,0,1-14.79-7.25c-9.66-12.55-29.66-37-39.22-37.66-12.88-.86-11.23,44.91-11.23,44.91h-7.22l-9.14-56.87a33.66,33.66,0,0,1,17.67-35.19h0s2.94,21.76,18.9,31.39,64.94,44.1,64.94,44.1a44.34,44.34,0,0,1,12.58.34C962.8,3218.21,961.44,3232.68,951.51,3232.68Z" fill="url(#linear-gradient-11)"/>
      <path d="M783,2790.44s-128.64,244-149.09,299.72-27.61,102.19-27.88,106.59c-.43,6.88-9,13.48-32.56,13.48-12.17,0-18.13-4.88-21-9.6a13.73,13.73,0,0,1-.52-13.31c7.44-15.06,31.05-63.19,39.8-85,10.44-26.06,32.9-144.16,45.22-185.22s26.24-85.61,79.89-126.64C716.83,2790.44,753.65,2754.37,783,2790.44Z" fill="url(#linear-gradient-12)"/>
      <path d="M864.28,2390.61c33.18-140.61-50.88-220.14-50.88-220.14,53-50.91,149.68-74.08,149.68-74.08s92.22,67.42,81.28,120.19c-6.41,30.93-64.82,185.26-64.82,185.26S925.53,2427.4,864.28,2390.61Z" fill="url(#linear-gradient-13)"/>
      <path d="M790.71,2460.22c13.5-40.68,73.57-69.61,73.57-69.61,61.25,36.79,115.26,11.23,115.26,11.23s12.11,46.29,3.75,89.32-60.8,319.53-60.8,319.53c-82.65,16.75-209.75-16.85-209.75-16.85C765.38,2700.39,777.21,2500.9,790.71,2460.22Z" fill="url(#linear-gradient-14)"/>
      <path d="M902.8,2003.47l-27,121.19c-2.58,10.67,7.15,8.92,17.94,6.89,17.67-3.33,40.45-10.2,48.06-24a12.77,12.77,0,0,0,1.38-4.56l11.59-84a15.1,15.1,0,0,0-8.83-15.87l-22.37-9.92A15.09,15.09,0,0,0,902.8,2003.47Z" fill="url(#linear-gradient-15)"/>
      <g>
        <path d="M954.47,1893s28.72,19.45,41.06,69-7.71,67.27-28.27,66.18-50.37-7.44-76.19-43S916.83,1869.25,954.47,1893Z" fill="url(#linear-gradient-16)"/>
        <path d="M917.11,1965.21s-10.52-71,48.38-60.1l11.91,12.4s28.83-32.47-3.07-57-76.19-18.26-100.68,26.42-33.39,76.08-12.86,103.85,36,4,36,4-9.42-24-1.6-34.34,17.89,6,17.89,6Z" fill="url(#linear-gradient-17)"/>
        <path d="M909.06,1971.28s-5.19-36.5-23.84-26.07,6.72,34.1,16.89,42.15Z" fill="url(#linear-gradient-18)"/>
      </g>
      <g>
        <path d="M1239.55,1895.42c.4,4.29-15.55,7.25-20.63-11,1.4-7.94,3.88-42.7,10-48.1,32.42-28.76,90.22-61.11,90.22-61.11,6.46,9.87-2,16.37-2,16.37L1288.23,1811c3,10,7.4,18.78,7.9,30.16a33.78,33.78,0,0,1-8.53,23.6c-5.74,6.56-13.47,15-20.44,21.46C1254,1898.41,1239.55,1895.42,1239.55,1895.42Z" fill="url(#linear-gradient-19)"/>
        <path d="M1255.21,1881.24l-4.38-1.8c.59-1.43,14.43-35.07,21.13-42.06,2.54-2.66,3.78-4.94,3.66-6.78a4.85,4.85,0,0,0-1.5-3l-23.36,12.5-10.32,16.15-4-2.55,11-17.19,27.34-14.61,1.21,1c2.77,2.26,4.19,4.68,4.36,7.42.2,3.25-1.42,6.63-5,10.34C1270.33,1845.92,1259.11,1871.74,1255.21,1881.24Z" fill="url(#linear-gradient-20)"/>
      </g>
      <path d="M813.4,2170.47S664.05,2477.12,610,2503.93c0,0-54.91,5.74-88.52,15.9-8.46,2.56-8.17,14.57.35,16.89,23.4,6.38,62.18,11.72,97.72-7.57,0,0-19.09,28.61-8,39.76,0,0,25.46-30.22,35-39.76C655,2520.74,807.9,2354,872.2,2253.44c5.2-8.13,1.59-32.27-2-41.22C861.88,2191.64,843.45,2158.78,813.4,2170.47Z" fill="url(#linear-gradient-21)"/>
    </g>
    <g>
      <circle cx="1728.91" cy="1543.58" r="447.99" fill="#fff" opacity="0.8"/>
      <g>
        <path d="M1874.22,1382.31c0,76.43-62,158.94-138.4,158.94s-138.39-82.51-138.39-158.94,62-130.66,138.39-130.66S1874.22,1305.87,1874.22,1382.31Z" fill="url(#linear-gradient-22)"/>
        <path d="M1564.08,1835.52h337.84a81.76,81.76,0,0,0,77.88-56.85l18.18-56.82c13.31-41.61-8.33-86.65-49.35-101.65-137.49-50.27-279.66-43.82-425.29,4.64-40.8,13.58-63.44,57.22-52.19,98.72l14,51.6A81.78,81.78,0,0,0,1564.08,1835.52Z" fill="url(#linear-gradient-23)"/>
      </g>
    </g>
    <path d="M1308.51,2559a36.94,36.94,0,0,1-37.1,35.65,35.15,35.15,0,0,1-34.85-36.49,36.92,36.92,0,0,1,37.17-35.64A35.15,35.15,0,0,1,1308.51,2559Z" fill="url(#linear-gradient-24)"/>
    <path d="M1443.11,2560.56a36.7,36.7,0,0,1-36.8,35.5,34.93,34.93,0,0,1-34.57-36.33,36.72,36.72,0,0,1,36.88-35.51A34.94,34.94,0,0,1,1443.11,2560.56Z" fill="url(#linear-gradient-25)"/>
    <path d="M1587.42,2562.94a36.94,36.94,0,0,1-37.1,35.65,35.16,35.16,0,0,1-34.86-36.49,36.94,36.94,0,0,1,37.18-35.65A35.15,35.15,0,0,1,1587.42,2562.94Z" fill="url(#linear-gradient-26)"/>
    <path d="M1872.83,2566.33a36.71,36.71,0,0,1-36.8,35.51,34.94,34.94,0,0,1-34.57-36.34,36.7,36.7,0,0,1,36.88-35.5A34.93,34.93,0,0,1,1872.83,2566.33Z" fill="url(#linear-gradient-27)"/>
    <path d="M2017.14,2568.71a36.94,36.94,0,0,1-37.1,35.65,35.16,35.16,0,0,1-34.86-36.49,36.93,36.93,0,0,1,37.18-35.64A35.15,35.15,0,0,1,2017.14,2568.71Z" fill="url(#linear-gradient-28)"/>
    <path d="M1722,2564.51a36.71,36.71,0,0,1-36.8,35.5,34.94,34.94,0,0,1-34.57-36.34,36.71,36.71,0,0,1,36.88-35.5A34.94,34.94,0,0,1,1722,2564.51Z" fill="url(#linear-gradient-29)"/>
  </g>
</svg>
