<svg xmlns="http://www.w3.org/2000/svg" xmlns:xlink="http://www.w3.org/1999/xlink" viewBox="0 0 2475 1650">
  <defs>
    <linearGradient id="linear-gradient" x1="108.67" y1="774.31" x2="2277" y2="774.31" gradientUnits="userSpaceOnUse">
      <stop offset="0" stop-color="#b37cff"/>
      <stop offset="1" stop-color="#f895e7"/>
    </linearGradient>
    <linearGradient id="linear-gradient-2" x1="165.24" y1="734.52" x2="2225.95" y2="734.52" xlink:href="#linear-gradient"/>
    <linearGradient id="linear-gradient-3" x1="883.14" y1="1269.7" x2="1155.4" y2="901.95" gradientTransform="matrix(1, -0.06, 0.06, 1, -212.95, -54.09)" gradientUnits="userSpaceOnUse">
      <stop offset="0" stop-color="#cb236d"/>
      <stop offset="1" stop-color="#4c246d"/>
    </linearGradient>
    <linearGradient id="linear-gradient-4" x1="2566.92" y1="1181.56" x2="2807.48" y2="856.62" gradientTransform="matrix(-0.85, -0.52, -0.52, 0.85, 4718.93, 1711.54)" xlink:href="#linear-gradient-3"/>
    <linearGradient id="linear-gradient-5" x1="776.67" y1="892.45" x2="1232.98" y2="892.45" gradientTransform="matrix(1, -0.06, 0.06, 1, -212.95, -54.09)" gradientUnits="userSpaceOnUse">
      <stop offset="0" stop-color="#a737d5"/>
      <stop offset="1" stop-color="#ef497a"/>
    </linearGradient>
    <linearGradient id="linear-gradient-6" x1="2707.79" y1="804.36" x2="3234.85" y2="804.36" gradientTransform="matrix(-0.99, -0.15, -0.15, 0.99, 4846.14, 427.82)" xlink:href="#linear-gradient-5"/>
    <linearGradient id="linear-gradient-7" x1="-388.4" y1="694.21" x2="-1299.93" y2="-276.51" gradientTransform="matrix(-0.99, -0.15, -0.15, 0.99, 1495.04, 173.37)" xlink:href="#linear-gradient-5"/>
    <linearGradient id="linear-gradient-8" x1="2383.82" y1="991.66" x2="3218.4" y2="991.66" gradientTransform="matrix(-0.99, -0.15, -0.15, 0.99, 4846.14, 427.82)" xlink:href="#linear-gradient-5"/>
    <linearGradient id="Yeni_Degrade_Renk_Örneği_3" data-name="Yeni Degrade Renk Örneği 3" x1="1432.66" y1="405.17" x2="1390.64" y2="1201.55" gradientUnits="userSpaceOnUse">
      <stop offset="0" stop-color="#b26d7a"/>
      <stop offset="1" stop-color="#af646f"/>
    </linearGradient>
    <linearGradient id="Yeni_Degrade_Renk_Örneği_1" data-name="Yeni Degrade Renk Örneği 1" x1="1380.04" y1="928.79" x2="1380.04" y2="209.37" gradientUnits="userSpaceOnUse">
      <stop offset="0" stop-color="#f7dfb9"/>
      <stop offset="0.66" stop-color="#e57a58"/>
      <stop offset="1" stop-color="#f0aeaf"/>
    </linearGradient>
    <clipPath id="clip-path">
      <path d="M1863.38,666.77c0,258.59-222.51,448.78-481.1,448.78S896.71,925.36,896.71,666.77,1119,192.49,1377.57,192.49,1863.38,408.19,1863.38,666.77Z" fill="none"/>
    </clipPath>
    <linearGradient id="Yeni_Degrade_Renk_Örneği_1-2" x1="1303.59" y1="1046.58" x2="1418.3" y2="327.3" xlink:href="#Yeni_Degrade_Renk_Örneği_1"/>
    <linearGradient id="Yeni_Degrade_Renk_Örneği_2" data-name="Yeni Degrade Renk Örneği 2" x1="1013.59" y1="1250.29" x2="1781.27" y2="1250.29" gradientUnits="userSpaceOnUse">
      <stop offset="0" stop-color="#d89aa3"/>
      <stop offset="1" stop-color="#cc838a"/>
    </linearGradient>
    <linearGradient id="Yeni_Degrade_Renk_Örneği_3-2" x1="1400.36" y1="1013.04" x2="1403.46" y2="1394.33" xlink:href="#Yeni_Degrade_Renk_Örneği_3"/>
    <linearGradient id="Yeni_Degrade_Renk_Örneği_3-3" x1="1421.64" y1="636.05" x2="1387.63" y2="1280.56" xlink:href="#Yeni_Degrade_Renk_Örneği_3"/>
    <linearGradient id="linear-gradient-9" x1="-2228.39" y1="847.07" x2="-2120.77" y2="1040.54" gradientTransform="matrix(-1, 0, 0, 1, -1636.48, 0)" gradientUnits="userSpaceOnUse">
      <stop offset="0" stop-color="#f9b776"/>
      <stop offset="1" stop-color="#f47960"/>
    </linearGradient>
    <linearGradient id="linear-gradient-10" x1="-2910.67" y1="738.19" x2="-3260.18" y2="1156.95" gradientTransform="translate(3555.42 95.17) rotate(1.99)" gradientUnits="userSpaceOnUse">
      <stop offset="0" stop-color="#2b3582"/>
      <stop offset="1" stop-color="#150e42"/>
    </linearGradient>
    <linearGradient id="Adsız_degrade_20" data-name="Adsız degrade 20" x1="3610.96" y1="965.72" x2="3738.52" y2="1243.35" gradientTransform="matrix(-1, 0, 0, 1, 4061.01, 0)" gradientUnits="userSpaceOnUse">
      <stop offset="0" stop-color="#c4d4a3"/>
      <stop offset="1" stop-color="#f0aeaf"/>
    </linearGradient>
    <linearGradient id="linear-gradient-11" x1="3143.41" y1="959.97" x2="3131.4" y2="882.92" gradientTransform="matrix(-1.05, 0.16, 0.15, 0.99, 3632.5, -479.73)" xlink:href="#linear-gradient-9"/>
    <linearGradient id="linear-gradient-12" x1="4789.15" y1="1171.82" x2="4895.21" y2="1243.87" gradientTransform="matrix(-0.92, -0.39, -0.39, 0.92, 5388.36, 1640.87)" xlink:href="#linear-gradient-9"/>
    <linearGradient id="linear-gradient-13" x1="3553.01" y1="810.94" x2="3659.08" y2="882.98" gradientTransform="matrix(-1, 0, 0, 1, 4061.01, 0)" xlink:href="#linear-gradient-9"/>
    <linearGradient id="Sky" x1="-2230.44" y1="1603.69" x2="-2362.85" y2="980.72" gradientTransform="matrix(-1, 0, 0, 1, -1636.48, 0)" gradientUnits="userSpaceOnUse">
      <stop offset="0" stop-color="#cce0f4"/>
      <stop offset="0.06" stop-color="#c3dcf2"/>
      <stop offset="0.17" stop-color="#a9d2ee"/>
      <stop offset="0.31" stop-color="#80c2e7"/>
      <stop offset="0.46" stop-color="#47acde"/>
      <stop offset="0.57" stop-color="#1e9cd7"/>
      <stop offset="0.87" stop-color="#0075be"/>
      <stop offset="0.99" stop-color="#005b97"/>
    </linearGradient>
    <linearGradient id="Sky-2" data-name="Sky" x1="-2181.07" y1="662.39" x2="-2276.33" y2="1119.29" xlink:href="#Sky"/>
    <linearGradient id="linear-gradient-14" x1="-1472.97" y1="891.52" x2="-1495.9" y2="1162.62" gradientTransform="matrix(-0.98, -0.18, -0.18, 0.98, -860.86, -347.05)" xlink:href="#linear-gradient-10"/>
    <linearGradient id="linear-gradient-15" x1="-1251.22" y1="921.49" x2="-1269.99" y2="1038.1" gradientTransform="matrix(-0.97, -0.26, -0.26, 0.97, -501.43, -460.99)" gradientUnits="userSpaceOnUse">
      <stop offset="0" stop-color="#18459f"/>
      <stop offset="1" stop-color="#2874b5"/>
    </linearGradient>
    <linearGradient id="linear-gradient-16" x1="-1253.57" y1="885.16" x2="-1261.48" y2="994.06" xlink:href="#linear-gradient-15"/>
    <linearGradient id="linear-gradient-17" x1="-3541.65" y1="1043.61" x2="-3574.79" y2="1083.3" gradientTransform="matrix(-0.89, 0.45, 0.45, 0.89, -3205.85, 1489.42)" xlink:href="#linear-gradient-15"/>
    <linearGradient id="linear-gradient-18" x1="777.4" y1="4974.67" x2="736.28" y2="5023.94" gradientTransform="matrix(-0.37, -0.93, 0.93, -0.37, -3927.59, 3373.91)" xlink:href="#linear-gradient-15"/>
    <linearGradient id="linear-gradient-19" x1="-2784.62" y1="816.52" x2="-2788.93" y2="876.89" gradientTransform="matrix(-0.97, 0.23, 0.23, 0.97, -2488.23, 630.25)" xlink:href="#linear-gradient-15"/>
    <linearGradient id="linear-gradient-20" x1="-2230.09" y1="848.02" x2="-2122.47" y2="1041.49" xlink:href="#linear-gradient-9"/>
    <linearGradient id="linear-gradient-21" x1="-2229.92" y1="847.92" x2="-2122.31" y2="1041.4" xlink:href="#linear-gradient-9"/>
    <linearGradient id="linear-gradient-22" x1="3673.37" y1="1096.67" x2="3898.87" y2="1096.67" gradientTransform="matrix(-1, 0, 0, 1, 4061.01, 0)" xlink:href="#linear-gradient-9"/>
    <linearGradient id="Yeni_Degrade_Renk_Örneği_3-4" x1="-2322.42" y1="855.52" x2="-2334.05" y2="1075.94" gradientTransform="matrix(-1, 0, 0, 1, -1636.48, 0)" xlink:href="#Yeni_Degrade_Renk_Örneği_3"/>
    <linearGradient id="Yeni_Degrade_Renk_Örneği_1-3" x1="-2336.98" y1="979.09" x2="-2336.98" y2="779.97" gradientTransform="matrix(-1, 0, 0, 1, -1636.48, 0)" xlink:href="#Yeni_Degrade_Renk_Örneği_1"/>
    <clipPath id="clip-path-2">
      <path d="M566.73,927.93c0,71.57,61.59,124.21,133.16,124.21S834.28,999.5,834.28,927.93,772.76,796.66,701.19,796.66,566.73,856.36,566.73,927.93Z" fill="none"/>
    </clipPath>
    <linearGradient id="Yeni_Degrade_Renk_Örneği_1-4" x1="-2384.24" y1="1156.38" x2="-2323.18" y2="832.61" gradientTransform="matrix(-1, 0, 0, 1, -1636.48, 0)" xlink:href="#Yeni_Degrade_Renk_Örneği_1"/>
    <linearGradient id="Yeni_Degrade_Renk_Örneği_2-2" x1="-2331.72" y1="1037.56" x2="-2335.58" y2="1137.5" gradientTransform="matrix(-1, 0, 0, 1, -1636.48, 0)" xlink:href="#Yeni_Degrade_Renk_Örneği_2"/>
    <linearGradient id="Yeni_Degrade_Renk_Örneği_3-5" x1="-2330.85" y1="1109.24" x2="-2331.42" y2="967.38" gradientTransform="matrix(-1, 0, 0, 1, -1636.48, 0)" xlink:href="#Yeni_Degrade_Renk_Örneği_3"/>
    <linearGradient id="Yeni_Degrade_Renk_Örneği_2-3" x1="-217.86" y1="1051.42" x2="-3712.43" y2="1051.42" gradientTransform="matrix(-1, 0, 0, 1, -1636.48, 0)" xlink:href="#Yeni_Degrade_Renk_Örneği_2"/>
    <linearGradient id="linear-gradient-23" x1="1948.26" y1="972.1" x2="2040.98" y2="972.1" gradientTransform="matrix(-1, 0.02, 0.02, 1, 3736.74, -45.94)" xlink:href="#linear-gradient-9"/>
    <linearGradient id="linear-gradient-24" x1="2041.49" y1="1449.14" x2="2111.01" y2="1449.14" gradientTransform="matrix(-1, 0.02, 0.02, 1, 3736.74, -45.94)" xlink:href="#linear-gradient-10"/>
    <linearGradient id="linear-gradient-25" x1="2215.55" y1="1367.12" x2="1962.6" y2="1565.73" gradientTransform="matrix(-1, 0.02, 0.02, 1, 3736.74, -45.94)" gradientUnits="userSpaceOnUse">
      <stop offset="0" stop-color="#53d8ff"/>
      <stop offset="1" stop-color="#3840f7"/>
    </linearGradient>
    <linearGradient id="linear-gradient-26" x1="2060.82" y1="1369.99" x2="2047.54" y2="1485.9" gradientTransform="matrix(-1, 0.02, 0.02, 1, 3736.74, -45.94)" xlink:href="#linear-gradient-9"/>
    <linearGradient id="linear-gradient-27" x1="2260.48" y1="1424.35" x2="2007.54" y2="1622.96" xlink:href="#linear-gradient-25"/>
    <linearGradient id="linear-gradient-28" x1="2147.36" y1="1450.99" x2="2247.44" y2="1450.99" gradientTransform="matrix(-1, 0.02, 0.02, 1, 3736.74, -45.94)" xlink:href="#linear-gradient-10"/>
    <linearGradient id="linear-gradient-29" x1="2169.01" y1="1382.38" x2="2155.72" y2="1498.29" gradientTransform="matrix(-1, 0.02, 0.02, 1, 3736.74, -45.94)" xlink:href="#linear-gradient-9"/>
    <linearGradient id="linear-gradient-30" x1="2326.81" y1="852.35" x2="1902.03" y2="1511.5" gradientTransform="matrix(-1, 0.02, 0.02, 1, 3736.74, -45.94)" xlink:href="#linear-gradient-10"/>
    <linearGradient id="linear-gradient-31" x1="1598.11" y1="459.4" x2="1740.57" y2="961.07" gradientTransform="matrix(1, 0, 0, 1, 0, 0)" xlink:href="#linear-gradient-5"/>
    <linearGradient id="linear-gradient-32" x1="2090.17" y1="629.01" x2="2039.46" y2="848.15" gradientTransform="matrix(-1, 0.02, 0.02, 1, 3736.74, -45.94)" xlink:href="#linear-gradient-3"/>
    <linearGradient id="linear-gradient-33" x1="2088.58" y1="1029.34" x2="2052.97" y2="1092.73" gradientTransform="matrix(-1, 0.02, 0.02, 1, 3736.74, -45.94)" xlink:href="#linear-gradient-10"/>
    <linearGradient id="linear-gradient-34" x1="1457.61" y1="499.29" x2="1600.07" y2="1000.97" gradientTransform="matrix(1, 0, 0, 1, 0, 0)" xlink:href="#linear-gradient-5"/>
    <linearGradient id="linear-gradient-35" x1="1720.69" y1="623.66" x2="1410.37" y2="1020.68" gradientTransform="matrix(-1, 0.02, 0.02, 1, 2969.07, -33.58)" xlink:href="#linear-gradient-3"/>
    <linearGradient id="linear-gradient-36" x1="1762.22" y1="656.12" x2="1451.9" y2="1053.14" gradientTransform="matrix(-1, 0.02, 0.02, 1, 2969.07, -33.58)" xlink:href="#linear-gradient-3"/>
    <linearGradient id="linear-gradient-37" x1="-6932.99" y1="301.39" x2="-7020.56" y2="368.39" gradientTransform="matrix(-0.98, -0.18, -0.18, 0.98, -5115.59, -932.66)" xlink:href="#linear-gradient-3"/>
    <linearGradient id="linear-gradient-38" x1="-6994.63" y1="248.34" x2="-6913.08" y2="353.34" gradientTransform="matrix(-0.98, -0.18, -0.18, 0.98, -5115.59, -932.66)" xlink:href="#linear-gradient-10"/>
    <linearGradient id="linear-gradient-39" x1="-6943.85" y1="287.19" x2="-7031.42" y2="354.19" gradientTransform="matrix(-0.98, -0.18, -0.18, 0.98, -5115.59, -932.66)" xlink:href="#linear-gradient-3"/>
    <linearGradient id="linear-gradient-40" x1="2088.93" y1="633.45" x2="2543.41" y2="870.57" gradientTransform="translate(-382.6)" xlink:href="#linear-gradient-10"/>
    <linearGradient id="linear-gradient-41" x1="-545.42" y1="738.6" x2="-708.09" y2="1123.89" gradientTransform="matrix(-1, 0.02, 0.02, 1, 1229.91, -5.56)" gradientUnits="userSpaceOnUse">
      <stop offset="0" stop-color="#fdf53f"/>
      <stop offset="1" stop-color="#d93c65"/>
    </linearGradient>
    <linearGradient id="linear-gradient-42" x1="-7367.58" y1="1982.16" x2="-7357.46" y2="1910.26" gradientTransform="translate(9434.86 791.76) rotate(15.3)" xlink:href="#linear-gradient-9"/>
    <linearGradient id="linear-gradient-43" x1="-7414.01" y1="1828.09" x2="-7319.32" y2="1936.96" gradientTransform="translate(9434.86 791.76) rotate(15.3)" xlink:href="#linear-gradient-9"/>
    <linearGradient id="linear-gradient-44" x1="2131.3" y1="552.24" x2="2585.78" y2="789.36" gradientTransform="translate(-382.6)" xlink:href="#linear-gradient-10"/>
    <linearGradient id="linear-gradient-45" x1="-7390.36" y1="1807.51" x2="-7295.66" y2="1916.38" gradientTransform="translate(9434.86 791.76) rotate(15.3)" xlink:href="#linear-gradient-9"/>
    <linearGradient id="linear-gradient-46" x1="5617.99" y1="1601.55" x2="5843.92" y2="1202.72" gradientTransform="matrix(-1, 0.01, 0.01, 1, 7592.98, -57.37)" xlink:href="#linear-gradient-9"/>
    <linearGradient id="linear-gradient-47" x1="5667.24" y1="1460.54" x2="5733.28" y2="1460.54" gradientTransform="matrix(-1, 0.01, 0.01, 1, 7592.98, -57.37)" xlink:href="#linear-gradient-10"/>
    <linearGradient id="linear-gradient-48" x1="5874.03" y1="1306.51" x2="5536.13" y2="1414.56" gradientTransform="matrix(-1, 0.01, 0.01, 1, 7592.98, -57.37)" xlink:href="#linear-gradient-9"/>
    <linearGradient id="linear-gradient-49" x1="5728.47" y1="1472.47" x2="5807.2" y2="1472.47" gradientTransform="matrix(-1, 0.01, 0.01, 1, 7592.98, -57.37)" xlink:href="#linear-gradient-10"/>
    <linearGradient id="linear-gradient-50" x1="5835.97" y1="942.99" x2="5647.36" y2="1363.43" gradientTransform="matrix(-1, 0.01, 0.01, 1, 7592.98, -57.37)" xlink:href="#linear-gradient-3"/>
    <linearGradient id="linear-gradient-51" x1="5707.44" y1="1069.89" x2="6082.22" y2="641.19" gradientTransform="matrix(-0.99, -0.11, -0.11, 0.99, 7744.34, 519.91)" xlink:href="#linear-gradient-9"/>
  </defs>
  <g id="Background">
    <rect width="2475" height="1650" fill="#fff"/>
  </g>
  <g id="Illustration">
    <g>
      <g>
        <path d="M361.27,237.86C184.8,386.61,441.93,611.6,319.71,695S-106.76,1218,358.61,1377.6c173.43,59.48,96.95,12,596.05,18.06,412.36,5,562.11-20.58,908.72-3.76,329.34,16,424.15-226.89,362.57-328.41-80.08-132-106.64-211.67,14.86-374.45S2172.3,75.81,1754,423.92,1074,512.14,1028,382,640.16,2.79,361.27,237.86Z" opacity="0.5" fill="url(#linear-gradient)"/>
        <path d="M700.46,225.36c-120.7,140.91-539.59-15.63-535.18,244.15C170.44,773.7,582.12,863.2,448.82,1077S375.36,1362.74,911,1358.22s1484.79-105.15,1277.18-396.57,27.1-350.81,37.22-479.61S2096.16,8.53,1681.28,244.13,1006.11-131.45,700.46,225.36Z" opacity="0.26" fill="url(#linear-gradient-2)"/>
      </g>
      <g opacity="0.48">
        <path d="M357.42,392.45c8.66-31.79,24.89-19.76,53.72-28s22.63-44.05,40.8-53.92c24.23-13.16,44.91,1.58,58.33,21.5,22.31,33.09,40.35,8.3,68.48,22.82,16.12,8.33,8.46,18.22,30.6,23.68,15.47,3.81,32.8-2,48,3.05,11.23,3.76,19.2,9.66,21.08,20.87-3.31,1.33-6.73,2.5-10.24,3.54-44.07,13-102.64,4.4-146.39,4.14C506.86,410,351.28,415,357.42,392.45Z" fill="#fff"/>
        <path d="M743.92,306.36c8-8.62,19.23-11.7,29.91-8.36,11.64,3.65,17.65,15.33,28.38,20.49,18.72,9,46.16-5,59.54,16.14,16.37,25.88,31.23,8.06,30.24,24.91s-123.37-2.76-184.16-5.43c-8.79-.38-46.85-3.25-29.38-20.51,5.42-5.36,12.74-5.88,19.6-6.81,8.93-1.21,30-.93,36.79-7.42,3.66-3.5,5.29-8.74,8.64-12.52Z" fill="#fff"/>
      </g>
      <g>
        <path d="M1070.89,1310s9.41-327.67-177.1-417.79c-178.92-86.44-222.5,1.57-309.38-121.79a7.33,7.33,0,0,0-13.32,3.65c-5.39,73.69-7.47,322.36,204.71,359.8C1021,1177.17,1070.89,1310,1070.89,1310Z" fill="url(#linear-gradient-3)"/>
        <path d="M607.4,843.94a111.66,111.66,0,0,0,8.67,17.81c1.78,2.82,3.37,5.75,5.29,8.48l5.71,8.21c4.19,5.2,8.1,10.61,12.71,15.46,2.24,2.47,4.43,5,6.72,7.42l7.16,7c19.23,18.55,41.16,34.15,64.24,47.57,23,13.75,47.75,24.1,72.63,33.82l19,6.46c6.32,2.16,12.64,4.32,19.14,6.39l9.66,3.18,9.57,3.45c6.42,2.2,12.67,4.88,19,7.35,12.51,5.29,24.94,10.87,36.94,17.35,6.08,3.08,11.9,6.64,17.83,10,5.76,3.66,11.62,7.18,17.19,11.15a293.28,293.28,0,0,1,60.66,55.17c17.57,21.16,31.83,44.93,43.39,69.68s20.69,50.45,29.76,75.73v0a7.09,7.09,0,1,1-13.34,4.78l0-.11c-8.67-25.54-17.13-50.88-28-75.08s-24.11-47.21-40.62-67.81a282.4,282.4,0,0,0-57.57-54.15c-5.33-4-11-7.46-16.5-11.11-5.72-3.39-11.33-7-17.21-10.06-11.59-6.52-23.67-12.19-35.86-17.59-6.17-2.53-12.26-5.27-18.55-7.55l-9.36-3.55-9.47-3.29c-6.3-2.13-12.69-4.43-19.07-6.73l-19.13-6.87c-25.05-10.29-50-21.2-73.05-35.55-23.19-14-45.19-30.24-64.41-49.43-19.05-19.23-36.34-40.82-46.11-66.67a1.59,1.59,0,0,1,3-1.13v0Z" fill="#fff" opacity="0.69"/>
      </g>
      <g opacity="0.86">
        <path d="M1593.68,1363.27s128.91-259.37,311.79-252.08c175.43,7,172.81,93.73,291.84,33.68a6.48,6.48,0,0,1,8.86,8.39C2179.74,1213,2078,1407.68,1897,1348.65,1687.84,1280.43,1593.68,1363.27,1593.68,1363.27Z" fill="url(#linear-gradient-4)"/>
        <path d="M2148.83,1192.6a99.29,99.29,0,0,1-14.16,10.28c-2.56,1.46-5,3.08-7.65,4.41l-7.87,4c-5.43,2.31-10.72,4.91-16.33,6.76-2.78,1-5.53,2.06-8.33,3l-8.49,2.48c-22.71,6.47-46.29,9.52-69.87,10.39-23.61,1.17-47.24-1.08-70.68-3.84l-17.5-2.86c-5.83-1-11.65-1.89-17.58-3l-8.85-1.55-8.9-1.29c-5.92-1-11.91-1.46-17.87-2.16-12-1.09-24-1.9-36-1.83-6-.13-12,.22-18.07.39-6,.45-12,.76-18,1.55a258.62,258.62,0,0,0-70.24,17.79c-22.49,9.19-43.49,21.79-62.79,36.28s-37.11,30.73-54.69,46.67h0a6.26,6.26,0,1,0,8.41,9.27l.08-.07c17.38-16.3,34.5-32.54,53-46.88s38.43-26.79,59.87-36a249.26,249.26,0,0,1,67.39-18.28c5.8-.86,11.65-1.26,17.49-1.8,5.86-.26,11.72-.71,17.6-.68,11.75-.27,23.52.33,35.27,1.19,5.86.59,11.75,1,17.59,1.83l8.79,1.12,8.75,1.37c5.79,1,11.73,1.82,17.66,2.68l17.77,2.6c23.81,2.4,47.78,4.26,71.73,2.66,23.91-1.28,47.8-4.78,70.77-11.75s45.31-16.72,63.67-32.81a1.4,1.4,0,1,0-1.85-2.11h0Z" fill="#fff" opacity="0.69"/>
      </g>
      <g opacity="0.88">
        <path d="M1090.6,1334.5l-24.68-12.8c1.52-186.35-51.68-525.47-242.49-607.85C694.18,658,643.45,590.53,644.3,440.09c.57-100.37-36.52-167.61-61.28-201.25a8.33,8.33,0,0,1,10-12.62c78.76,33.43,284.7,133.89,386.11,306.43C1106,748.66,1090.6,1334.5,1090.6,1334.5Z" fill="url(#linear-gradient-5)"/>
        <path d="M718.33,343.87a203.38,203.38,0,0,1,28,17c4.43,3.13,8.88,6.22,13.08,9.64l6.39,5L769,378l3.07,2.65,12.27,10.6c4,3.65,7.85,7.43,11.78,11.14L802,408c2,1.87,3.75,3.89,5.63,5.82l11.17,11.73c29.35,31.7,55,66.59,78.11,103l8.69,13.63,2.17,3.41,2,3.51,4,7,16.08,28,14.8,28.73,7.38,14.37c2.35,4.84,4.52,9.77,6.79,14.66l13.46,29.36c2.31,4.87,4.34,9.86,6.41,14.83L985,701c3.93,10,7.88,20.06,11.65,30.15l5.48,15.2,2.75,7.59,2.57,7.66q20.8,61.19,35.94,124.05T1069,1012.15c3.55,21.23,6.63,42.53,9.5,63.86s5.25,42.72,7.39,64.14,3.9,42.87,5.28,64.36,2.46,42.94,2.79,64.69a7.09,7.09,0,1,1-14.17.22v-.18c-.17-21.14-1.1-42.6-2.3-63.9s-2.82-42.65-4.78-63.94-4.25-42.55-6.88-63.77-5.6-42.4-9-63.51q-10-63.36-24.56-125.86T997.54,764.89l-2.5-7.61-2.67-7.55L987,734.62c-3.66-10-7.5-20-11.32-30l-6.06-14.83c-2-4.94-4-9.9-6.25-14.74l-13.14-29.23c-2.21-4.86-4.33-9.77-6.62-14.59L936.43,617,922,588.38l-15.73-27.9-3.93-7-2-3.49-2.13-3.39-8.5-13.56c-22.61-36.18-47.76-70.88-76.5-102.38L802.27,419c-1.84-1.92-3.6-3.93-5.51-5.78L791,407.71c-3.84-3.69-7.62-7.44-11.52-11.06l-12-10.52-3-2.63L761.38,381l-6.24-5c-4.1-3.39-8.44-6.44-12.75-9.54s-8.76-5.94-13.17-8.87c-4.48-2.72-9.11-5.49-13.62-7.67l-.19-.1a3.34,3.34,0,1,1,2.92-6Z" fill="#fff" opacity="0.69"/>
      </g>
      <g>
        <g opacity="0.6">
          <path d="M1467.5,1138.5a6.8,6.8,0,0,1,4.68-11c59.91-4.71,309.81-37.57,290.49-257.1-21.93-249.28-43.43-319.55,70-409.84,103.28-82.21,197.42-75.8,271.9-43.12,5.2,2.28,3.73,10.2-1.94,10.4-48.79,1.75-160.21,14.79-198.11,95.51-49.06,104.54-33.43,358.66-137.53,483-102.85,122.83-195.28,123.25-293.65,134.6a6.5,6.5,0,0,1-5.86-2.45Z" fill="url(#linear-gradient-6)"/>
        </g>
        <path d="M2360.39,685.6a9.42,9.42,0,0,0,3.16-15.42c-13.22-13-35.68-39.92-51.56-84.58s-61.36-143.67-188.81-139.42-201.93,216-259.78,426.87-312,251.63-312,251.63l-68.85,15.23s236.49-2.13,349.35-149.39,138.13-398,278.92-372.23C2246,643,2252.1,727.26,2360.39,685.6Z" fill="url(#linear-gradient-7)"/>
        <g>
          <g opacity="0.6">
            <path d="M2346.42,933.65c6.57,3.9,14.28-2.87,11.41-10.06-16.45-41.11-57.33-118.46-134.57-128.16-105.86-13.29-190.73,22.79-317.89,178.37-123.6,151.22-357,174.63-417.94,166.86a5.91,5.91,0,0,0-6.37,4.15h0a6,6,0,0,0,5,7.76c43,4.4,269.11,24.87,391.38-17.85C2005.78,1089.86,2219.62,858.28,2346.42,933.65Z" fill="url(#linear-gradient-8)"/>
          </g>
          <path d="M2291,874.66a152,152,0,0,0-24.6-11.78,191.46,191.46,0,0,0-26.18-7.9c-4.43-1.09-8.94-1.8-13.42-2.61-4.52-.59-9-1.31-13.56-1.61a208.75,208.75,0,0,0-80.9,8.53,270.84,270.84,0,0,0-50.19,21.22c-32.05,17.46-60.53,41-86.28,66.91-6.33,6.63-12.51,13.32-18.79,20.07s-12.44,13.71-18.93,20.32l-9.64,10-9.86,9.8c-6.5,6.59-13.38,12.81-20.1,19.2-13.75,12.43-27.78,24.58-42.54,35.86a505.76,505.76,0,0,1-46,31.4,377.09,377.09,0,0,1-102.68,42.63c-36.06,9.09-73.12,13.1-110,14.57-18.48.78-37,1-55.41,1s-36.91-.24-55.36-.5a.87.87,0,0,1-.87-.89.9.9,0,0,1,.88-.88c36.88-.54,73.79-.59,110.55-2.83,18.37-1.15,36.69-2.75,54.88-5.26a449.53,449.53,0,0,0,53.93-10.69,382.2,382.2,0,0,0,100.6-43,500,500,0,0,0,45.19-31.17c14.52-11.2,28.34-23.29,41.88-35.66,6.63-6.36,13.4-12.55,19.82-19.12l9.73-9.76,9.5-10c6.41-6.59,12.47-13.51,18.7-20.26s12.66-13.58,19.09-20.27c26.26-26.25,55.38-50.11,88.3-67.87s69.63-28.82,107.09-29.86a204.43,204.43,0,0,1,28,1.23c4.65.43,9.25,1.28,13.86,2,4.57.94,9.16,1.79,13.66,3,18.07,4.64,35.59,11.44,51.37,21.69a1.48,1.48,0,0,1,.43,2,1.46,1.46,0,0,1-2,.45Z" fill="#fff" opacity="0.71"/>
        </g>
        <path d="M2352.64,673.58c-12.93-1.54-25.14-6.4-36.23-13.07a111,111,0,0,1-29-25.7,137.42,137.42,0,0,1-10.84-16.21,155.63,155.63,0,0,1-8.39-17.59q-1.77-4.54-3.31-9.16l-2.84-9.14a131.07,131.07,0,0,0-7-17.19,190.24,190.24,0,0,0-44.91-59,137.44,137.44,0,0,0-30.59-20.6,111.3,111.3,0,0,0-17.06-6.63,102.15,102.15,0,0,0-17.88-3.47c-3-.35-6.06-.41-9.09-.5-3,.08-6.08.12-9.1.47a95.58,95.58,0,0,0-17.92,3.42,109.25,109.25,0,0,0-17.17,6.49,145.93,145.93,0,0,0-16.2,8.9c-20.85,13.46-38.64,31.58-54.47,51.08-7.94,9.76-15.24,20.07-22.29,30.55s-13.61,21.31-20,32.25c-12.74,21.91-24.1,44.63-35,67.6a1.19,1.19,0,0,1-2.18-.95,759.49,759.49,0,0,1,32.33-69.33c6-11.25,12.4-22.36,19.27-33.16a379.8,379.8,0,0,1,22-31.56c15.73-20.27,33.84-39.18,55.66-53.62a132.59,132.59,0,0,1,35.57-16.68,105.42,105.42,0,0,1,19.49-3.78c3.3-.38,6.63-.44,9.95-.53,3.32.08,6.65.14,10,.51a106.12,106.12,0,0,1,19.53,3.76,121.79,121.79,0,0,1,18.42,7.27,145.93,145.93,0,0,1,32.42,22,194.53,194.53,0,0,1,46,62.32,135.71,135.71,0,0,1,6.95,18.3l2.62,9.15c.9,3,1.92,5.92,3,8.86a149,149,0,0,0,7.5,17.07,130.75,130.75,0,0,0,9.87,15.79,107.17,107.17,0,0,0,26.77,25.77,102.35,102.35,0,0,0,16.49,8.9,80.79,80.79,0,0,0,17.9,5.48l.08,0a1,1,0,0,1,.79,1.1A1,1,0,0,1,2352.64,673.58Z" fill="#fff" opacity="0.71"/>
      </g>
      <g>
        <path d="M1779.08,1079.54c0,24.82-164.84,63.12-377.56,63.12s-386.44-38.3-386.44-63.12,172.44-45,385.16-45S1779.08,1054.71,1779.08,1079.54Z" fill="url(#Yeni_Degrade_Renk_Örneği_3)"/>
        <g>
          <circle cx="1381.09" cy="681.98" r="495.5" fill="#fff"/>
          <path d="M1863.38,666.77c0,258.59-223.71,510.71-482.29,510.71S896.71,925.36,896.71,666.77,1119,192.49,1377.57,192.49,1863.38,408.19,1863.38,666.77Z" fill="url(#Yeni_Degrade_Renk_Örneği_1)"/>
          <g clip-path="url(#clip-path)">
            <path d="M1063.61,387.83c17.91,14.1,24.6,38.33,25.63,61.1s-2.51,45.64-.18,68.32c4.45,43.5,38.32,87.35,82,86.79,28.77-.36,54.13-19.21,73.3-40.67s34.54-46.39,56-65.57c22.18-19.81,61.13-30.44,78.75-6.49,6.5,8.85,8.13,20.24,9.75,31.1,6.45,43.13,16.26,86.46,37.28,124.66s54.5,71.11,96.25,83.71,91.7,1.52,118.74-32.69c22.47-28.43,26.46-67.43,23.14-103.52-2.64-28.75-9.11-59,2.35-85.55S1718,467.08,1736,489.68c4.9,6.17,7.23,14,11.53,20.58,10.67,16.37,34.24,22.75,51.7,14,9.81-4.92,19.54-14.17,30-10.84,3.21,1,5.93,3.17,8.57,5.27l23.41,18.62c8.16,6.49,16.53,13.23,21.48,22.4,4.85,9,6,19.41,7,29.55,9.32,94.81,16.15,192.75-13.22,283.38-35.58,109.84-122.8,198.49-225.58,251.11s-220.06,71.78-335.52,72.07c-89.19.23-181.61-11.46-257.65-58.08-67.35-41.29-117.41-108.34-143-183.07-12.37-36-19.31-73.72-29.58-110.42-24.35-87-68-173-57-262.75,7.14-58.29,39.77-118.39,89.12-151.5C955.23,404.44,1018,351.9,1063.61,387.83Z" fill="url(#Yeni_Degrade_Renk_Örneği_1-2)"/>
          </g>
        </g>
        <g>
          <path d="M1779.08,1077.56c3.31,29.39,4.34,56.35-7.84,77.84v26.5c6.92,63.36-3,116.85-27.19,162-52.65,98.08-621.88,112.76-693.76,0-19-52.6-33.12-105.65-12.93-162l-5.57-25.52c-16.15-19.18-21-45.38-16.71-76.84C1098.62,1145,1623.07,1155.4,1779.08,1077.56Z" fill="url(#Yeni_Degrade_Renk_Örneği_2)"/>
          <path d="M1031.79,1156.38c158.78,51.76,633.47,45.39,739.45-1v26.5c-155.5,49.08-611.12,54.52-733.88,0Z" fill="url(#Yeni_Degrade_Renk_Örneği_3-2)"/>
          <path d="M1015.08,1079.54c253.66,69.17,506.67,69.31,764-2l1.56,16.42c-258.15,70.86-511.76,73.06-765.56,3Z" fill="url(#Yeni_Degrade_Renk_Örneği_3-3)"/>
          <path d="M1321.44,1407.25h0a502.73,502.73,0,0,1-57.81-3.9c-5.45-.61-11.62-1.31-19.11-2.09a1.5,1.5,0,0,1,.31-3c7.51.79,13.68,1.49,19.13,2.1a498.88,498.88,0,0,0,57.54,3.88,1.5,1.5,0,0,1,0,3Z" fill="#fff"/>
          <path d="M1230.93,1399.28l-.19,0c-81.33-10.33-139.65-28.78-173.34-54.83a1.5,1.5,0,1,1,1.83-2.37c33.27,25.72,91.1,44,171.89,54.23a1.5,1.5,0,0,1-.19,3Z" fill="#fff"/>
        </g>
        <path d="M1183.23,1075.72c243.61,86.08,504,25.45,638.07-229.21a3.22,3.22,0,0,0-5.41-3.45c-136.71,182.65-390.53,272.81-631,226.46A3.22,3.22,0,0,0,1183.23,1075.72Z" fill="#fff" opacity="0.33"/>
        <path d="M1010,957.87c-129.08-148.6-149.62-329.08-58.27-505.16a2.16,2.16,0,0,1,4,1.63c-57.58,188.32-38.47,367.16,57.67,500.85A2.16,2.16,0,0,1,1010,957.87Z" fill="#fff" opacity="0.33"/>
        <path d="M1388.43,194c156.35,8,337.61,95,418,253.71,1.17,2.33-2.18,4.58-3.65,2.43-101.3-148.45-240.83-229-414.9-251.79C1385.17,198,1385.73,193.84,1388.43,194Z" fill="#fff" opacity="0.48"/>
      </g>
      <g>
        <path d="M563.07,915.57l-51.35,124.19a17,17,0,0,1-20.85,9.73l-9.52-3v-49.4l71.71-90.84Z" fill="url(#linear-gradient-9)"/>
        <path d="M311.91,996.46c-.21-14.93-8.47-29.68-4-44.52,8.08-26.52,20.82-51.68,39.25-72.87,21.15-24.33,47.28-41.1,71.91-61.34,18.86-15.5,37.66-14.1,61.53-16.8,17.9-2,27.18-3.69,37.07,13.75,10.63,18.78,16.17,41.56,14.43,63.15-.94,11.67-6,22.35-9.3,33.45-3.17,10.73-2.8,21-3.46,32-1.44,24.1-2.45,49.18-13.44,71.2-10.22,20.49-29.07,36.28-50.7,43.56-26,8.75-50,6.56-77.05,4.67-18.65-1.31-37.27-4.92-53.39,5.81-15.12,10.07-27.75,23-36.24,39.18a75.18,75.18,0,0,1-.85-53.18c6.18-17,19.33-32.14,23.37-49.83A34.13,34.13,0,0,0,311.91,996.46Z" fill="url(#linear-gradient-10)"/>
        <path d="M444,1103.54s41.34-39.37,61.69-65.44A55.33,55.33,0,0,0,515,988.32c-9.29-31.3-25.8-63.72-27.3-68.77-2.31-7.73-48.67-7.41-48.67-7.41s-91.21,59.2-127,159.47l40.25,12.54s23.82-40,47.35-65.36c0,0-40.72,53.79-42.15,75.81Z" fill="url(#Adsız_degrade_20)"/>
        <path d="M490.31,872.68c-.27,1.67-7.08,43.24-7.95,44.21s-27.61,6.36-41.51.12L456,871.49Z" fill="url(#linear-gradient-11)"/>
        <path d="M501.07,804.45s16.48,17,17.78,51.9-14.62,43.92-28.22,40.3S458,884.59,445.7,857.2,479.24,783.27,501.07,804.45Z" fill="url(#linear-gradient-12)"/>
        <path d="M459.28,852.84s-8.33-23.79-19.44-14.32,9,22,16.92,26Z" fill="url(#linear-gradient-13)"/>
        <path d="M959.34,1126.16q-2.05,22.14-4.09,44.28c-.86,9.36-1.73,18.77-1,28.14.79,10.33,3.48,20.5,3.66,30.87.18,10.64-2.3,21.2-2.16,31.85.3,23.94,8,53.68,12.84,77.53,5.61,27.83,14.54,55.06,27.94,80.16,4.58,8.6,9.85,17.86,8.17,27.46-4.07,23.26-119.48-2.9-142.54-.17-22.47,2.66-44.36,8.78-66.11,15-52.6,15.11-108.17,31.2-161.17,17.53-24.36-6.28-46.68-18.57-70.26-27.32a254.1,254.1,0,0,0-116.91-14.16c-35.23,4.06-68.82,16.56-103.32,24.17-17.83,3.94-36,7.08-54.37,6.81-6.42-.09-37.75-7.94-42.47-3.23C290,1422.74,299,1357.89,301.06,1298c.87-25.63.94-51.31,3-76.88,1.89-24,3.13-73.47,20.89-92,7.45-7.78,14.31-6.4,25.55-6.39,24.3,0,48.6-.25,72.9-.25H642.62c57.33,0,114.65.21,172,.2,29.4,0,58.8.12,88.2.13,18,0,39.72-7.34,57-1.53C959.63,1122.85,959.49,1124.54,959.34,1126.16Z" fill="url(#Sky)"/>
        <ellipse cx="639.95" cy="1119.74" rx="319.35" ry="27.63" fill="url(#Sky-2)"/>
        <path d="M457,884.56a326.82,326.82,0,0,1-27.62,51.37c-10.23,15.53-22.35,32.16-20.29,50.64.83,7.45,4,14.48,4.78,21.92,1.26,11.47-3.19,23-10.19,32.2s-16.39,16.22-26.07,22.49c5.89-7.46,11.85-15,15.48-23.82s4.69-19.07.67-27.68c-5.2-11.11-17.93-17.88-21.23-29.7-1.56-5.55-.76-11.46,0-17.17,1.18-8.43,2.5-17.19,7.28-24.24,3.74-5.52,9.68-10.24,10.12-16.89.52-8-7-13.82-10.91-20.77-4.92-8.67-4.2-19.52-1.2-29A67.49,67.49,0,0,1,390.39,851c13.28-15.9,34.1-26.59,53.1-34.08,21.8-8.58,24.29,11.57,23.81,28.78C466.92,859.26,462.28,872.24,457,884.56Z" fill="url(#linear-gradient-14)"/>
        <g>
          <path d="M457.28,826.28c-11.32.59-23.89-.36-32.33-8.77-8-8-8.07-14-3.91-24.69,2.39-6.14,5.11-12.23,9.13-17.41,18.32-23.62,52.8-13.84,69.5,5.29,6.3,7.21,15.1,21,7.3,30.37-3.13,3.74-7.73,5.79-12.24,7.48A137.94,137.94,0,0,1,457.28,826.28Z" fill="url(#linear-gradient-15)"/>
          <path d="M414.74,813.28c2.78-1.57,6.06-2,9.25-2.34,25.45-2.63,52.63-.33,75.06-12.65a21.51,21.51,0,0,1,6.45-2.82,9.45,9.45,0,0,1,9.06,3.63c3.56,4.85.89,12-3.93,15.08-8.58,5.4-17.59,6.75-27.44,8.21-15.43,2.27-31,4.55-46.6,4.6-7.22,0-16.45.49-23.36-1.9-6.13-2.12-3.54-8.78,1.21-11.63Z" fill="url(#linear-gradient-16)"/>
          <path d="M418.42,817.77c3.36-2.55,2.87-10.21,3-13.74.18-4.13.71-7.54-3.08-10.24-2.57-1.84-6-1.89-9.14-1.6s-6.37.85-9.42,0-5.42-3.24-5.53-6.36c-.2,4.71-3.19,7.42-1.82,12.22a14.16,14.16,0,0,0,7.88,9.5c2.92,1.24,6.47,1.58,8.51,4,1.4,1.68,1.79,4.06,3.34,5.61a5.08,5.08,0,0,0,5.08,1.19A4,4,0,0,0,418.42,817.77Z" fill="url(#linear-gradient-17)"/>
          <path d="M418.94,821c-.36,2.13-2.31,4.12-4,6.19-4.07,5-8.65,8.65-15.39,8.51-2.31,0-4.76-.53-6.37-2.18-3-3.12-2.8-8.83-6.23-11.74-2-1.69-12.36-3.77-14.11-1.18,4.44-6.57,17.26-12.53,25.22-10.38,2.86.77,5.05,3,7.09,5.18,5.11,1.32,13.37-3.5,13.84,4.71A4.39,4.39,0,0,1,418.94,821Z" fill="url(#linear-gradient-18)"/>
          <path d="M422,811.17a2,2,0,0,1,1,.26,1.83,1.83,0,0,1,.63,1.16,13.23,13.23,0,0,1-5.38,13.83,2.64,2.64,0,0,1-1.88.58,2.88,2.88,0,0,1-1.35-.86q-2.19-2.08-4.23-4.34a2.52,2.52,0,0,1-.67-1.06,2.68,2.68,0,0,1,.23-1.49C413,812.15,413.91,810.92,422,811.17Z" fill="url(#linear-gradient-19)"/>
        </g>
        <g>
          <path d="M562.59,911.55l6.21-30.86a11.36,11.36,0,0,1,3.18-6.07l6.89-7.16a9.89,9.89,0,0,1,5.18-2.35c12.11-1.49,17.24-4.67,21.54-5.71,1.82-2,2-3.25-1-5.44a76.61,76.61,0,0,0-25.43,4.47l-17.86,14.69a3.55,3.55,0,0,0-1.06,1.47c-4,10.24-6.73,21.93-8.85,34.38-2.73,3.18-3.75,9.66-8,11.78.26,1.37,9,7.88,12.78,2.59A42.92,42.92,0,0,0,562.59,911.55Z" fill="url(#linear-gradient-20)"/>
          <path d="M559.58,917c12.39-4,9.42-26.64,22.53-47,.27-4-4.08-5.52-7.37-1.13l-10.9,17.9Z" fill="url(#linear-gradient-21)"/>
          <path d="M580.28,866.46a3.86,3.86,0,0,0-3.72,1.32,16.46,16.46,0,0,0-2.51,3.32,74.88,74.88,0,0,0-3.8,7.54l-3.44,7.78c-1.15,2.59-2.32,5.18-3.68,7.69l1.47-4,1.5-4q1.5-4,3.24-7.89a50.45,50.45,0,0,1,4.07-7.55,16.27,16.27,0,0,1,2.83-3.27,5.58,5.58,0,0,1,1.91-1A3,3,0,0,1,580.28,866.46Z" fill="#fff"/>
        </g>
        <path d="M528.19,1106.46l-30.37-29.27-42,17.75s-41.82,6.48-65.76,0l-23.93-6.48L312,1071.61l-8.49,24a14.44,14.44,0,0,0,5.28,16.6c4.68,3.33,10.16,7,13.66,8.51,7.12,3.12,175.6-2.15,175.6-2.15Z" fill="url(#linear-gradient-22)"/>
        <g>
          <path d="M590.06,1042.17c0,6.87,45.63,17.47,104.5,17.47s107-10.6,107-17.47-47.73-12.44-106.6-12.44S590.06,1035.3,590.06,1042.17Z" fill="url(#Yeni_Degrade_Renk_Örneği_3-4)"/>
          <g>
            <circle cx="700.22" cy="932.14" r="137.14" transform="translate(-454.03 768.14) rotate(-45)" fill="#fff"/>
            <path d="M566.73,927.93c0,71.57,61.92,141.35,133.49,141.35S834.28,999.5,834.28,927.93,772.76,796.66,701.19,796.66,566.73,856.36,566.73,927.93Z" fill="url(#Yeni_Degrade_Renk_Örneği_1-3)"/>
            <g clip-path="url(#clip-path-2)">
              <path d="M788.09,850.72c-5,3.91-6.81,10.61-7.1,16.91s.7,12.64,0,18.91c-1.23,12-10.6,24.18-22.71,24-8-.1-15-5.32-20.28-11.26s-9.57-12.84-15.51-18.15c-6.13-5.48-16.91-8.43-21.79-1.8-1.8,2.45-2.25,5.61-2.7,8.61-1.78,11.94-4.5,23.93-10.32,34.51s-15.08,19.68-26.64,23.16-25.38.43-32.86-9c-6.22-7.87-7.33-18.67-6.41-28.66.73-8,2.52-16.34-.65-23.67S607,872.66,602,878.91c-1.36,1.71-2,3.87-3.19,5.7a11.51,11.51,0,0,1-14.31,3.87c-2.72-1.36-5.41-3.92-8.3-3a7.92,7.92,0,0,0-2.38,1.46l-6.48,5.15c-2.25,1.8-4.57,3.67-5.94,6.2s-1.65,5.37-1.93,8.18c-2.58,26.24-4.47,53.35,3.66,78.44,9.85,30.4,34,54.93,62.44,69.5s60.9,19.86,92.86,19.95c24.69.06,50.27-3.18,71.31-16.08,18.65-11.43,32.5-30,39.6-50.67,3.42-10,5.34-20.4,8.18-30.56,6.74-24.09,18.83-47.9,15.78-72.73-2-16.13-11-32.76-24.66-41.93C818.08,855.32,800.72,840.78,788.09,850.72Z" fill="url(#Yeni_Degrade_Renk_Örneği_1-4)"/>
            </g>
          </g>
          <g>
            <path d="M590.06,1041.63c-.92,8.13-1.2,15.59,2.17,21.54v7.34c-1.92,17.53.83,32.34,7.53,44.82,14.57,27.15,172.12,31.21,192,0,5.25-14.55,9.17-29.24,3.58-44.82l1.54-7.07c4.47-5.31,5.82-12.56,4.63-21.27C778.4,1060.3,633.24,1063.17,590.06,1041.63Z" fill="url(#Yeni_Degrade_Renk_Örneği_2-2)"/>
            <path d="M796.89,1063.44c-43.94,14.33-175.33,12.56-204.66-.27v7.34c43,13.58,169.15,15.08,203.12,0Z" fill="url(#Yeni_Degrade_Renk_Örneği_3-5)"/>
            <path d="M801.52,1042.17c-70.21,19.15-140.24,19.19-211.46-.54l-.43,4.54c71.45,19.61,141.64,20.22,211.89.84Z" fill="url(#Yeni_Degrade_Renk_Örneği_2-3)"/>
            <path d="M716.73,1133a.49.49,0,0,1-.5-.49.5.5,0,0,1,.48-.51,137.29,137.29,0,0,0,15.92-1.07l5.3-.58a.49.49,0,0,1,.55.44.5.5,0,0,1-.45.55l-5.29.58a138.54,138.54,0,0,1-16,1.08Z" fill="#fff"/>
            <path d="M741.78,1130.75a.5.5,0,0,1-.07-1c22.35-2.84,38.34-7.88,47.54-15a.5.5,0,0,1,.61.79c-9.34,7.22-25.5,12.33-48,15.19Z" fill="#fff"/>
          </g>
          <path d="M755,1041.12c-67.43,23.82-139.48,7-176.61-63.44a.89.89,0,0,1,1.5-1c37.84,50.56,108.09,75.51,174.64,62.68A.89.89,0,0,1,755,1041.12Z" fill="#fff" opacity="0.33"/>
          <path d="M802.94,1008.5c35.72-41.13,41.41-91.08,16.12-139.82a.6.6,0,0,0-1.1.45c15.94,52.13,10.65,101.62-16,138.63A.6.6,0,0,0,802.94,1008.5Z" fill="#fff" opacity="0.33"/>
          <path d="M698.18,797.07c-43.27,2.22-93.44,26.3-115.68,70.22-.33.64.6,1.27,1,.67,28-41.08,66.66-63.37,114.84-69.69C699.09,798.18,698.93,797,698.18,797.07Z" fill="#fff" opacity="0.48"/>
        </g>
      </g>
      <g>
        <path d="M561.5,1227.1l5.25,2.88h0a1,1,0,0,1-1,1.82h0l-5.26-2.9a1,1,0,0,1,1-1.8Z" fill="#fff"/>
        <path d="M580.08,1237l10.78,5.4h0a1.07,1.07,0,0,1-1,1.91h0l-10.8-5.45a1,1,0,0,1-.46-1.41,1,1,0,0,1,1.41-.47Z" fill="#fff"/>
        <path d="M604.48,1248.88l11,4.95h0a1.1,1.1,0,0,1-.9,2h0l-11-5a1.08,1.08,0,0,1,.89-2Z" fill="#fff"/>
        <path d="M629.35,1259.71l11.2,4.46h0a1.13,1.13,0,1,1-.83,2.1h0l-11.23-4.51a1.12,1.12,0,1,1,.83-2.07Z" fill="#fff"/>
        <path d="M654.68,1269.43l11.38,4h0a1.16,1.16,0,1,1-.77,2.19h0l-11.42-4a1.14,1.14,0,1,1,.76-2.16Z" fill="#fff"/>
        <path d="M680.41,1278l11.56,3.42h0a1.19,1.19,0,0,1-.68,2.29h0l-11.6-3.47a1.18,1.18,0,0,1-.79-1.47,1.19,1.19,0,0,1,1.47-.79Z" fill="#fff"/>
        <path d="M706.51,1285.37l11.71,2.87h0a1.23,1.23,0,0,1-.58,2.39h0l-11.76-2.91a1.21,1.21,0,1,1,.59-2.35Z" fill="#fff"/>
        <path d="M732.93,1291.46l11.84,2.28h0a1.26,1.26,0,0,1-.48,2.47h0l-11.89-2.31a1.25,1.25,0,0,1-1-1.46,1.23,1.23,0,0,1,1.46-1Z" fill="#fff"/>
        <path d="M759.63,1296.21l11.93,1.67h0a1.29,1.29,0,1,1-.36,2.55h0l-12-1.7a1.27,1.27,0,1,1,.36-2.52Z" fill="#fff"/>
        <path d="M786.52,1299.56l12,1h0a1.31,1.31,0,0,1,1.2,1.43,1.32,1.32,0,0,1-1.43,1.2h0l-12.06-1.06a1.31,1.31,0,1,1,.23-2.6Z" fill="#fff"/>
        <path d="M813.56,1301.46l12,.36h0a1.35,1.35,0,0,1-.08,2.7h0l-12.11-.39a1.34,1.34,0,0,1,.09-2.68Z" fill="#fff"/>
        <path d="M840.66,1301.85l12-.32h0a1.39,1.39,0,0,1,.07,2.77h0l-12.11.3a1.38,1.38,0,0,1-1.41-1.34,1.36,1.36,0,0,1,1.34-1.4Z" fill="#fff"/>
        <path d="M867.74,1300.69l12-1h0a1.42,1.42,0,1,1,.24,2.82h0l-12.08,1a1.4,1.4,0,1,1-.23-2.79Z" fill="#fff"/>
        <path d="M894.69,1298l11.92-1.71h0a1.45,1.45,0,0,1,.41,2.87h0l-12,1.69a1.43,1.43,0,0,1-.4-2.84Z" fill="#fff"/>
        <path d="M921.45,1293.7l11.8-2.4h0a1.46,1.46,0,1,1,.58,2.87h0l-11.88,2.4a1.45,1.45,0,0,1-.57-2.85Z" fill="#fff"/>
        <path d="M947.91,1287.86l11.64-3.09h0a1.48,1.48,0,0,1,.76,2.87h0l-11.72,3.1a1.48,1.48,0,0,1-.76-2.86Z" fill="#fff"/>
        <path d="M974,1280.48l11.43-3.77,0,0a1.51,1.51,0,1,1,.94,2.86h0l-11.52,3.78a1.49,1.49,0,0,1-.93-2.84Z" fill="#fff"/>
        <path d="M999.56,1271.58l11.2-4.43,0,0a1.52,1.52,0,0,1,1.12,2.83h0l-11.28,4.45a1.52,1.52,0,0,1-1.11-2.82Z" fill="#fff"/>
        <path d="M1024.6,1261.21l10.93-5.06h0a1.54,1.54,0,1,1,1.3,2.79h0l-11,5.07a1.53,1.53,0,1,1-1.29-2.78Z" fill="#fff"/>
        <path d="M1049,1249.45l10.63-5.65,0,0a1.56,1.56,0,1,1,1.46,2.76h0l-10.71,5.67a1.55,1.55,0,1,1-1.45-2.74Z" fill="#fff"/>
        <path d="M1072.75,1236.38l10.32-6.2,0,0a1.58,1.58,0,1,1,1.63,2.7h0l-10.39,6.23a1.57,1.57,0,1,1-1.61-2.69Z" fill="#fff"/>
        <path d="M1095.77,1222.09l10-6.72,0,0a1.6,1.6,0,0,1,1.78,2.65h0l-10.07,6.75a1.59,1.59,0,0,1-1.77-2.64Z" fill="#fff"/>
        <path d="M1118.06,1206.67l9.66-7.2,0,0a1.62,1.62,0,0,1,1.93,2.6h0l-9.73,7.22a1.61,1.61,0,0,1-1.92-2.59Z" fill="#fff"/>
        <path d="M1139.6,1190.21l9.34-7.62,0,0a1.64,1.64,0,0,1,2.07,2.54h0l-9.4,7.64a1.62,1.62,0,1,1-2.05-2.52Z" fill="#fff"/>
        <path d="M1160.4,1172.82l9-8,0,0a1.65,1.65,0,1,1,2.2,2.47h0l-9.07,8a1.64,1.64,0,0,1-2.18-2.46Z" fill="#fff"/>
        <path d="M1180.47,1154.59l8.7-8.35,0,0a1.68,1.68,0,1,1,2.32,2.42h0l-8.75,8.37a1.66,1.66,0,1,1-2.3-2.4Z" fill="#fff"/>
        <path d="M1199.85,1135.61l8.39-8.65,0,0a1.69,1.69,0,1,1,2.43,2.36h0l-8.44,8.68a1.69,1.69,0,0,1-2.42-2.35Z" fill="#fff"/>
        <path d="M1218.56,1116l8.13-8.91v0a1.71,1.71,0,0,1,2.53,2.31h0l-8.16,8.93a1.7,1.7,0,0,1-2.52-2.29Z" fill="#fff"/>
        <path d="M1236.68,1095.77l7.89-9.13h0a1.73,1.73,0,1,1,2.62,2.26h0l-7.92,9.15a1.73,1.73,0,0,1-2.61-2.26Z" fill="#fff"/>
        <path d="M1254.3,1075.12l7.71-9.29h0a1.75,1.75,0,1,1,2.69,2.24h0l-7.73,9.29a1.76,1.76,0,0,1-2.46.23,1.73,1.73,0,0,1-.22-2.45Z" fill="#fff"/>
        <path d="M1271.59,1054.16l7.59-9.37,0,0a1.75,1.75,0,0,1,2.48-.26,1.78,1.78,0,0,1,.27,2.49h0l-7.62,9.39a1.76,1.76,0,1,1-2.74-2.22Z" fill="#fff"/>
        <path d="M1288.48,1032.93l7.29-9.61v0a1.79,1.79,0,0,1,2.85,2.16h0l-7.33,9.64a1.79,1.79,0,0,1-2.5.34,1.77,1.77,0,0,1-.33-2.49Z" fill="#fff"/>
        <path d="M1304.67,1011.17l7-9.84,0,0a1.79,1.79,0,0,1,2.51-.43,1.81,1.81,0,0,1,.44,2.52h0l-7,9.87a1.8,1.8,0,1,1-2.93-2.08Z" fill="#fff"/>
        <path d="M1320.14,988.89l6.63-10.07,0,0a1.8,1.8,0,0,1,2.52-.52,1.82,1.82,0,0,1,.53,2.53h0l-6.67,10.1a1.82,1.82,0,1,1-3-2Z" fill="#fff"/>
        <path d="M1334.84,966.1l6.29-10.29v0a1.84,1.84,0,0,1,3.15,1.92h0L1338,968a1.84,1.84,0,1,1-3.13-1.92Z" fill="#fff"/>
        <path d="M1348.76,942.82l5.94-10.49v0a1.86,1.86,0,0,1,3.25,1.83h0l-6,10.54a1.86,1.86,0,0,1-3.23-1.83Z" fill="#fff"/>
        <path d="M1361.89,919.09l5.58-10.68,0,0a1.88,1.88,0,1,1,3.33,1.75h0l-5.62,10.72a1.87,1.87,0,1,1-3.32-1.74Z" fill="#fff"/>
        <path d="M1374.23,894.94l5.24-10.86v0a1.9,1.9,0,0,1,3.43,1.65h0l-5.28,10.89a1.89,1.89,0,1,1-3.41-1.65Z" fill="#fff"/>
        <path d="M1385.82,870.41l4.91-11v0a1.92,1.92,0,1,1,3.51,1.57h0l-5,11a1.91,1.91,0,0,1-3.49-1.57Z" fill="#fff"/>
        <path d="M1396.69,845.56l4.63-11.14v0a1.94,1.94,0,1,1,3.58,1.49h0l-4.66,11.17a1.93,1.93,0,1,1-3.56-1.48Z" fill="#fff"/>
        <path d="M1406.94,820.43l4.38-11.24v0a2,2,0,0,1,3.65,1.42h0l-4.4,11.26a2,2,0,1,1-3.64-1.42Z" fill="#fff"/>
        <path d="M1416.66,795.08l4.19-11.32h0a2,2,0,1,1,3.71,1.37h0l-4.21,11.34a2,2,0,1,1-3.69-1.37Z" fill="#fff"/>
        <path d="M1426,769.57l4.07-11.37h0a2,2,0,0,1,3.77,1.35h0l-4.08,11.38a2,2,0,0,1-3.75-1.34Z" fill="#fff"/>
        <path d="M1435.11,744l4-11.39a2,2,0,0,1,3.8,1.34h0l-4,11.38a2,2,0,0,1-3.79-1.34Z" fill="#fff"/>
        <path d="M1444.21,718.34l4.1-11.37a2,2,0,1,1,3.83,1.38h0L1448,719.71h0a2,2,0,0,1-3.81-1.38Z" fill="#fff"/>
        <path d="M1453.53,692.77l4.27-11.31a2.06,2.06,0,0,1,3.85,1.45h0v0l-4.28,11.28h0a2,2,0,1,1-3.82-1.45Z" fill="#fff"/>
        <path d="M1463.32,667.37l4.57-11.22a2.07,2.07,0,0,1,3.84,1.57h0v0l-4.57,11.15v0a2.06,2.06,0,1,1-3.82-1.56Z" fill="#fff"/>
        <path d="M1473.85,642.23l5-11a2.09,2.09,0,0,1,3.82,1.72h0v0l-5,11,0,0a2.09,2.09,0,0,1-3.8-1.72Z" fill="#fff"/>
        <path d="M1485.42,617.53l5.54-10.79a2.11,2.11,0,1,1,3.76,1.93h0l0,.05-5.51,10.69,0,0a2.1,2.1,0,0,1-3.74-1.92Z" fill="#fff"/>
        <path d="M1498.27,593.45l6.18-10.45a2.13,2.13,0,0,1,3.67,2.17h0l0,.05L1502,595.56l0,.05a2.12,2.12,0,0,1-3.65-2.16Z" fill="#fff"/>
        <path d="M1512.61,570.2l6.88-10a2.15,2.15,0,0,1,3.54,2.44h0l0,0-6.82,9.89,0,.06a2.14,2.14,0,0,1-3.52-2.43Z" fill="#fff"/>
        <path d="M1528.54,548l7.63-9.46a2.14,2.14,0,0,1,3.33,2.69l0,0-7.5,9.37,0,.06a2.16,2.16,0,0,1-3.37-2.71Z" fill="#fff"/>
        <path d="M1546.16,527.1l8.36-8.82a2,2,0,0,1,3,2.79l0,0-8.17,8.81,0,.05a2.11,2.11,0,0,1-3.09-2.87Z" fill="#fff"/>
        <path d="M1565.39,507.67l9-8.15a1.87,1.87,0,0,1,2.52,2.75l-.05,0-8.8,8.19,0,0a1.95,1.95,0,0,1-2.65-2.85Z" fill="#fff"/>
        <path d="M1586,489.74l9.52-7.52a1.73,1.73,0,0,1,2.16,2.71l0,0-9.39,7.52,0,0a1.77,1.77,0,1,1-2.22-2.77Z" fill="#fff"/>
        <path d="M1607.72,473.22l10-6.91a1.69,1.69,0,0,1,1.92,2.77l0,0-9.89,6.86,0,0a1.69,1.69,0,0,1-1.93-2.78Z" fill="#fff"/>
        <path d="M1630.43,458.09l10.39-6.25a1.66,1.66,0,1,1,1.72,2.85l0,0-10.3,6.22,0,0a1.68,1.68,0,1,1-1.73-2.87Z" fill="#fff"/>
        <path d="M1654.06,444.44l10.76-5.58a1.64,1.64,0,0,1,1.51,2.91l0,0-10.67,5.56,0,0a1.65,1.65,0,0,1-1.53-2.93Z" fill="#fff"/>
        <path d="M1678.48,432.29l11.08-4.92a1.62,1.62,0,1,1,1.31,3h0l-11,4.91,0,0a1.63,1.63,0,0,1-1.32-3Z" fill="#fff"/>
        <path d="M1703.58,421.62l11.35-4.26a1.6,1.6,0,1,1,1.13,3h0l-11.26,4.26h0a1.61,1.61,0,1,1-1.14-3Z" fill="#fff"/>
        <path d="M1729.26,412.43l11.56-3.63a1.58,1.58,0,0,1,1,3h0l-11.48,3.62h0a1.59,1.59,0,0,1-1-3Z" fill="#fff"/>
        <path d="M1755.4,404.67l11.74-3a1.56,1.56,0,0,1,.77,3h0l-11.67,3h0a1.56,1.56,0,0,1-.78-3Z" fill="#fff"/>
        <path d="M1781.9,398.29l11.88-2.4a1.54,1.54,0,0,1,.61,3h0l-11.81,2.41h0a1.55,1.55,0,1,1-.62-3Z" fill="#fff"/>
        <path d="M1808.69,393.24l12-1.84a1.55,1.55,0,1,1,.47,3.06h0l-11.91,1.81h0a1.54,1.54,0,0,1-.46-3.05Z" fill="#fff"/>
        <path d="M1835.67,389.44l12-1.3a1.57,1.57,0,0,1,.33,3.12h0l-12,1.28h0a1.56,1.56,0,0,1-.34-3.1Z" fill="#fff"/>
        <path d="M1862.9,386.84l6-.42a1.58,1.58,0,0,1,.22,3.16h0l-6,.4h0a1.58,1.58,0,0,1-.22-3.15Z" fill="#fff"/>
      </g>
      <g>
        <g>
          <path d="M1770.19,910.18c9.67,10,23.82,18.54,33.76,23.86-14.42,18.42-34,37-60.12,55.22l-7.27,17-24.64-28.58S1755,955.44,1770.19,910.18Z" fill="url(#linear-gradient-23)"/>
          <path d="M1649.67,1461.8a6.1,6.1,0,0,1,.13-1.58c7.33-31.16,45.88-51.13,45.88-51.13l15.42,1c9.3,27.22,8.43,44,7.13,51.52,0,.21-.1.41-.15.61C1705.39,1463.52,1679.26,1464.68,1649.67,1461.8Z" fill="url(#linear-gradient-24)"/>
          <path d="M1718.08,1462.18a6.7,6.7,0,0,1-4.81,5c-18,4.09-46.78,1.49-58.86.11a5.61,5.61,0,0,1-4.74-5.51C1679.26,1464.68,1705.39,1463.52,1718.08,1462.18Z" fill="url(#linear-gradient-25)"/>
          <path d="M1716.93,1387l-6,31.5a5.12,5.12,0,0,1-4.32,4.29,43.45,43.45,0,0,1-10.11,0,6.46,6.46,0,0,1-5.23-7.5l4.08-28Z" fill="url(#linear-gradient-26)"/>
          <path d="M1583,1464c17-.75,25.77-2.89,30.28-4.82,0,1.69.06,3.41,0,5.19a3.36,3.36,0,0,1-3.15,3.47l-93.39.9c-3,0-4.78-3.4-3.53-6.15C1525.49,1463.44,1556.71,1465.2,1583,1464Z" fill="url(#linear-gradient-27)"/>
          <path d="M1513.23,1462.63a4,4,0,0,1,.36-.71c8.06-11.66,28.69-35,70-45.57l19.9-.95s9.12,15.27,9.74,43.82c-4.51,1.93-13.28,4.07-30.28,4.82C1556.71,1465.2,1525.49,1463.44,1513.23,1462.63Z" fill="url(#linear-gradient-28)"/>
          <path d="M1606.74,1385.17c-.2,1.48-2.57,24.09-3.48,32.85a4.33,4.33,0,0,1-3.59,4,45.48,45.48,0,0,1-13.68,0,5.88,5.88,0,0,1-4.56-5.84l-.57-35.41Z" fill="url(#linear-gradient-29)"/>
          <path d="M1616.08,973.23s-45.09,183.29-40.52,413a8.89,8.89,0,0,0,7.2,8.55c6.06,1.18,15,2.54,22.3,2.22a8.25,8.25,0,0,0,7.75-7c6.1-39.6,41.16-262.7,62.6-299.17,0,0,17.68,197.91,14.7,300.78a4.88,4.88,0,0,0,4.38,5,82.11,82.11,0,0,0,17.87-.34,6.5,6.5,0,0,0,5.72-5.63c4.26-33.5,28.67-232.88,25.18-376.17-.19-8.08-22.06-42.88-22.06-42.88Z" fill="url(#linear-gradient-30)"/>
          <path d="M1545.73,753.42l22.54-38.67c59-44.08,149.35-23.7,184.22-19.88a46.48,46.48,0,0,1,29.62,15.29c30.37,34,97.32,127.44,21.84,223.88-9.94-5.32-24.09-13.86-33.76-23.86,8.13-24.16,8.33-54.86-10.13-92.21a87.58,87.58,0,0,1-2.14,8.88c-23.35,78.36-23.62,143.27-23.32,158.22a4.92,4.92,0,0,1-3,4.66c-32.18,13.5-94.65,6.78-115.63,4a7,7,0,0,1-6-7.89c9.07-74.59-45.62-196.16-60-226.6A20.48,20.48,0,0,0,1545.73,753.42Z" fill="url(#linear-gradient-31)"/>
          <path d="M1695.5,633.11l7.27,63.67s-35.71,11.39-62.1-6.6l17.41-58.26Z" fill="url(#linear-gradient-32)"/>
          <path d="M1677.1,1086.1a1.83,1.83,0,0,0,1.73-1.39c3.73-15.42,33.28-32.78,33.58-33a1.81,1.81,0,0,0-1.82-3.13c-1.27.74-31.19,18.32-35.28,35.24a1.81,1.81,0,0,0,1.33,2.19A2.4,2.4,0,0,0,1677.1,1086.1Z" fill="url(#linear-gradient-33)"/>
          <g>
            <path d="M1424.79,775.43c67.73,9.05,111.08-34.29,143.48-60.68C1611.05,679.9,1645,696,1645,696l-44.79,88.93c-68,66.17-138.93,52.86-183.87,32.5A86,86,0,0,1,1424.79,775.43Z" fill="url(#linear-gradient-34)"/>
            <path d="M1329.18,736.65l22.6,11.69c27.13,15.93,51.32,24.19,73,27.09a86,86,0,0,0-8.42,42c-28.6-13-46.66-28.79-46.66-28.79C1318.46,759.16,1329.18,736.65,1329.18,736.65Z" fill="url(#linear-gradient-35)"/>
          </g>
          <path d="M1263.68,769.29a16.52,16.52,0,0,1,9.49-10.73l45.18-19s.59-5.84-9.77-9.64-8.14-15.37-8.14-15.37,14.17,6.19,34.92,16c11.87,5.62,18.64,15.79,22.27,23.47l-11.46,15.58c-27.89,8.87-56.22,10.94-84.87,8.06Z" fill="url(#linear-gradient-36)"/>
          <g>
            <path d="M1663.13,561.89s-21.3,31.91-25.59,49.91-10.32,29.08,10,36.53,39.94.16,52.79-16.22c0,0,20.05-25.2,18.74-37.23S1663.13,561.89,1663.13,561.89Z" fill="url(#linear-gradient-37)"/>
            <path d="M1695.54,617.8l-1.11-.75a2.93,2.93,0,0,1-.69-4.21c4-5.2,12.13-17.28,5.22-21.68-8.91-5.68-45.61-20.31-51.4-35.31-5.56-14.41,4.46-29.93,15.84-32.8a1.47,1.47,0,0,1,1.78,1l.58,1.81a1.45,1.45,0,0,0,2.68.21h0a1.44,1.44,0,0,1,2.64.09c1.8,4.5,7.44,12.29,25.08,18.94,25.06,9.45,40.32,23,37.52,41a1.46,1.46,0,0,0,2,1.58c2.12-.83,5.28-.82,8.76,3.36,6,7.27.33,22.27-17.58,32.24a1.44,1.44,0,0,0-.34,2.3c2.5,2.35,5.93,7.49-6,11.37-12.4,4-20.75,2-23.91.87a1.44,1.44,0,0,1-.84-1.92l6.3-15.13a1.44,1.44,0,0,0-1.08-2Z" fill="url(#linear-gradient-38)"/>
            <path d="M1694.28,621s9.74-21.09,18.54-13.1-9.61,23.86-17.73,23.25Z" fill="url(#linear-gradient-39)"/>
          </g>
        </g>
        <g>
          <path d="M1780,751.89c6.91-11.41,19-18.91,26.25-30.1,9.16-14.1,9.48-32.77,3.47-48.48-5-13-13.85-24.28-18.93-37.27-6.84-17.49-7-25-3.86-42.57,2.75-15.47,8.76-31.94,23.6-40.81,18.36-11,40.82-13,61.84-9.08,21.81,4.13,43,13.39,58.92,28.82s26.36,37.09,26.1,59.29c-.18,15-5,30.5-.2,44.72A35.14,35.14,0,0,0,1982.07,699c12.64,3,25.77-1.36,38.75-1.2A56.51,56.51,0,0,1,2056.27,711c8.7,7.36,15.14,17.69,16.61,29s-2.47,23.46-11.16,30.84c-5.94,5-14.3,8.46-16.49,15.94-2.46,8.37,4.74,16.78,12.77,20.17s17.07,3.69,25.25,6.73c18.28,6.81,29.36,27.42,27.93,46.88s-13.74,37.07-29.88,48-35.74,15.88-55.19,17.46-39,0-58.47-.88c-22.3-1-45-1.35-66.17-8.5-21.38-7.23-39.85-21.06-57.07-35.65-8.16-6.9-16.43-14.45-20.09-24.49-2.65-7.29-2.67-15.39-5.72-22.52-6.56-15.3-24.74-21.81-35.26-34.72C1772.67,786.21,1771.28,766.33,1780,751.89Z" fill="url(#linear-gradient-40)"/>
          <path d="M1799.29,725.86c12.59-4,49.31-11.59,84.88,20.18a21.71,21.71,0,0,1,6.6,21.52c-8.86,34.8-32,137.57-9.55,181.51,0,0-37.69,42.91-80.1,9.5,0,0-20.1-81.56-45.28-117.09-17.38-24.54,25.58-93.6,36.47-110.29A13,13,0,0,1,1799.29,725.86Z" fill="url(#linear-gradient-41)"/>
          <path d="M1833.11,656.46s19.57,52.62,21.35,75.95a40,40,0,0,1-40.27-5.82s-2.9-52.83-6-62.25Z" fill="url(#linear-gradient-42)"/>
          <path d="M1806,584.71s-47.84,69.28-18.26,88.7,63.63-29.81,63.63-29.81,10.75-37.67-1.33-50.19S1806,584.71,1806,584.71Z" fill="url(#linear-gradient-43)"/>
          <path d="M1828.35,568s-22.4,5.69-25.39,15.91,32.2,19.1,42,19.4l8.57,40.92s22.76-39,13.14-61.14S1828.35,568,1828.35,568Z" fill="url(#linear-gradient-44)"/>
          <path d="M1841.76,638.72s18.69-22.37,26.5-8.11-16.74,25.45-25.41,18.53Z" fill="url(#linear-gradient-45)"/>
          <path d="M1755,1131.21c.21,3.72-5.84,33.3-9.14,49.08a25.89,25.89,0,0,0,3.09,18.53l126.3,205a28.32,28.32,0,0,1,3.36,8c2.41,9.67,7.46,33.4,5.37,55.09l-6.15,13.32,27.42-6.69,4.79-74-7.86-4.63a36.93,36.93,0,0,1-15.25-17.28c-11.56-26.83-40.28-95.14-47.94-128.53-8.7-37.95-51.48-68.19-51.48-68.19l7.14-17.69Z" fill="url(#linear-gradient-46)"/>
          <path d="M1935.43,1447.6s-15.23-23.31-17.13-32.45-7-25.26-16.1-20.24c0,0-3.6,44.61-1.83,62s-19.41,17.16-19.41,17.16a19.82,19.82,0,0,0-10,5.25c-2.9,3-.71,8.08,3.46,8.28a118.68,118.68,0,0,0,29.44-2.14A9,9,0,0,0,1911,1477l2.23-51.31,19.12,23.37Z" fill="url(#linear-gradient-47)"/>
          <path d="M1829,1163s7.32,185,8.33,211.34-2.79,84.62-28.86,102.46l11.6,8.31s14.14-12.41,27.77-36.09c15.3-26.59,20-31.48,20-31.48l-5.39-10.6a23.53,23.53,0,0,1-2.15-15c5.24-27.65,22.77-119.65,27.64-139.48,5.74-23.41,5.67-54.55-16-80.26S1829,1163,1829,1163Z" fill="url(#linear-gradient-48)"/>
          <path d="M1858.67,1492.83a1.61,1.61,0,0,0,1.61-1.41c.78-6.19,4-31,6.91-37.44,3.31-7.4,14-38.46-.66-40.85,0,0-35.47,53.65-42.32,60.92s-15.73,2.75-15.73,2.75a26.3,26.3,0,0,0-11.78,8.75,4.81,4.81,0,0,0,3.91,7.66l24.47-.16a17.19,17.19,0,0,0,16-11.1c4.14-10.83,11.28-26.72,19.79-33.86l-3.79,43a1.62,1.62,0,0,0,1.63,1.77Z" fill="url(#linear-gradient-49)"/>
          <path d="M1795,938.7s5.79,17.48-2.21,46.56l-49.58,184.31a5.68,5.68,0,0,0,3.66,6.86c15.81,5.38,67.73,20.49,138.17,14.49a8,8,0,0,0,7.2-6.35c4.31-21,19-92.6,22-107.32,11.54-56.07,24.46-116.55-37.23-152C1849.1,937.77,1823,945.3,1795,938.7Z" fill="url(#linear-gradient-50)"/>
          <path d="M1889.29,752.87s60.58,48.71,76.5,116.36-86.13,76.5-86.13,76.5-14.13-15.27-30.5-9.48-1.72-27,17.55-27.24,10.59,15.16,37.65,2.37c26.36-12.45,42.17-49.91-26.48-105.21a30.6,30.6,0,0,1-9.14-12C1855,761.21,1865.13,739.33,1889.29,752.87Z" fill="url(#linear-gradient-51)"/>
        </g>
      </g>
      <g>
        <path d="M883.77,988.53l11.63,2.8h0a1.25,1.25,0,1,1-.58,2.43h-.05l-11.58-3.29a1,1,0,0,1,.5-2Z" fill="#fff"/>
        <path d="M910,994.27l11.79,1.89h.06a1.68,1.68,0,1,1-.53,3.31h-.05l-11.84-2.28a1.49,1.49,0,0,1,.52-2.94Z" fill="#fff"/>
        <path d="M936.65,998l11.89,1h.07a2,2,0,0,1-.36,4.08h0l-12-1.3a1.91,1.91,0,0,1,.37-3.81Z" fill="#fff"/>
        <path d="M963.42,999.71l11.93.13h.07a2.32,2.32,0,0,1,0,4.63h0l-12.07-.37a2.2,2.2,0,0,1,.09-4.39Z" fill="#fff"/>
        <path d="M990.24,999.43l11.88-.8h.09a2.58,2.58,0,0,1,.34,5.14h0l-12.07.57a2.46,2.46,0,0,1-.28-4.91Z" fill="#fff"/>
        <path d="M1016.92,997.09l11.78-1.7h.1a2.75,2.75,0,0,1,.78,5.45h0l-12,1.59a2.69,2.69,0,0,1-.74-5.32Z" fill="#fff"/>
        <path d="M1043.32,992.68l11.6-2.64.1,0a2.89,2.89,0,0,1,1.28,5.64h0l-11.83,2.58a2.84,2.84,0,0,1-1.23-5.54Z" fill="#fff"/>
        <path d="M1069.27,986.17l11.34-3.58.1,0a3,3,0,1,1,1.78,5.64h0l-11.57,3.58a2.93,2.93,0,0,1-1.73-5.59Z" fill="#fff"/>
        <path d="M1094.58,977.54l11-4.49.1,0a3,3,0,1,1,2.27,5.56h0l-11.22,4.56a3,3,0,0,1-2.26-5.55Z" fill="#fff"/>
        <path d="M1119.11,966.88l10.61-5.37.1,0a3,3,0,1,1,2.7,5.32l-10.8,5.49a3,3,0,1,1-2.71-5.33h0Z" fill="#fff"/>
        <path d="M1142.68,954.24l10.14-6.21.1-.06a2.93,2.93,0,0,1,3.08,5l-10.28,6.4a3,3,0,1,1-3.15-5.05h0Z" fill="#fff"/>
        <path d="M1165.17,939.75l9.6-7,.08-.07a2.83,2.83,0,0,1,3.36,4.56l-9.71,7.23a2.88,2.88,0,0,1-3.43-4.62h0Z" fill="#fff"/>
        <path d="M1186.42,923.47l9-7.75.08-.07a2.63,2.63,0,0,1,3.46,4l-9,8a2.73,2.73,0,0,1-3.62-4.08l0,0Z" fill="#fff"/>
        <path d="M1206.35,905.57l8.38-8.47.06-.06a2.41,2.41,0,0,1,3.45,3.36l-8.36,8.73a2.51,2.51,0,0,1-3.62-3.47l0,0Z" fill="#fff"/>
        <path d="M1224.79,886.11l7.73-9.08,0-.06a2.13,2.13,0,0,1,3.28,2.73l-7.6,9.39a2.29,2.29,0,1,1-3.55-2.88l0,0Z" fill="#fff"/>
        <path d="M1241.76,865.32l7-9.66,0,0a1.75,1.75,0,0,1,2.86,2l-6.81,10a1.92,1.92,0,0,1-3.17-2.17l0,0Z" fill="#fff"/>
        <path d="M1257.09,843.26l2.2-3.48v0a1.41,1.41,0,0,1,2.41,1.46l-2.08,3.6a1.49,1.49,0,0,1-2.58-1.49l0-.05Z" fill="#fff"/>
      </g>
      <g>
        <path d="M846.86,799.19l11.59,3h0a1.42,1.42,0,0,1,1,1.73,1.4,1.4,0,0,1-1.72,1h0l-11.63-3.1a1.36,1.36,0,0,1,.68-2.63Z" fill="#fff"/>
        <path d="M873.05,805.4l11.74,2.23h.05a1.56,1.56,0,1,1-.58,3.07h0l-11.81-2.37a1.5,1.5,0,0,1,.57-2.94Z" fill="#fff"/>
        <path d="M899.56,809.92l11.86,1.42h.06a1.71,1.71,0,0,1-.41,3.4h0l-11.95-1.55a1.65,1.65,0,0,1,.41-3.27Z" fill="#fff"/>
        <path d="M926.3,812.57l11.93.53h.06a1.86,1.86,0,0,1-.16,3.71h0l-12.05-.67a1.79,1.79,0,0,1,.18-3.58Z" fill="#fff"/>
        <path d="M953.15,813.18l11.92-.41h.08a2,2,0,0,1,.13,4h0l-12.07.32a1.94,1.94,0,0,1-.11-3.87Z" fill="#fff"/>
        <path d="M979.94,811.65l11.84-1.41h.08a2.06,2.06,0,0,1,.48,4.1h0l-12,1.36a2,2,0,0,1-.47-4Z" fill="#fff"/>
        <path d="M1006.48,807.83l11.66-2.45.08,0a2.15,2.15,0,1,1,.88,4.2h0L1007.25,812a2.11,2.11,0,0,1-.85-4.13Z" fill="#fff"/>
        <path d="M1032.56,801.68,1044,798.2l.09,0a2.23,2.23,0,1,1,1.3,4.26h0l-11.59,3.47a2.19,2.19,0,0,1-1.26-4.2Z" fill="#fff"/>
        <path d="M1058,793.19l11-4.53.09,0a2.31,2.31,0,1,1,1.76,4.27h0l-11.22,4.53a2.27,2.27,0,1,1-1.71-4.2Z" fill="#fff"/>
        <path d="M1082.45,782.37l10.54-5.53.09,0a2.38,2.38,0,0,1,2.21,4.21h0l-10.74,5.56a2.35,2.35,0,1,1-2.16-4.17Z" fill="#fff"/>
        <path d="M1105.85,769.36l10-6.42.07-.05a2.41,2.41,0,1,1,2.6,4.05h0l-10.19,6.51a2.4,2.4,0,0,1-2.58-4Z" fill="#fff"/>
        <path d="M1128.07,754.39l9.49-7.21.07,0a2.43,2.43,0,1,1,2.94,3.88h0l-9.64,7.29a2.42,2.42,0,1,1-2.92-3.86Z" fill="#fff"/>
        <path d="M1149.11,737.75l9-7.85.05,0a2.46,2.46,0,0,1,3.23,3.71h0l-9.11,7.92a2.45,2.45,0,0,1-3.21-3.7Z" fill="#fff"/>
        <path d="M1169.06,719.77l8.56-8.33,0,0a2.49,2.49,0,0,1,3.47,3.57h0l-8.65,8.39a2.48,2.48,0,0,1-3.45-3.55Z" fill="#fff"/>
        <path d="M1188.09,700.79l8.22-8.69,0,0a2.51,2.51,0,1,1,3.65,3.46h0l-8.29,8.73a2.5,2.5,0,1,1-3.63-3.45Z" fill="#fff"/>
        <path d="M1206.42,681.07l8-8.93,0,0a2.54,2.54,0,0,1,3.79,3.39h0l-8,9a2.53,2.53,0,0,1-3.77-3.38Z" fill="#fff"/>
        <path d="M1224.25,660.88l7.83-9.07h0a2.56,2.56,0,1,1,3.87,3.34h0l-7.85,9.09a2.56,2.56,0,0,1-3.87-3.34Z" fill="#fff"/>
        <path d="M1241.83,640.43l7.79-9.13a2.54,2.54,0,1,1,3.86,3.29l-7.77,9.14a2.55,2.55,0,0,1-3.88-3.3Z" fill="#fff"/>
        <path d="M1259.35,619.89l7.81-9.12A2.51,2.51,0,0,1,1271,614h0l-7.79,9.12h0a2.53,2.53,0,0,1-3.84-3.28Z" fill="#fff"/>
        <path d="M1277,599.41l7.91-9a2.49,2.49,0,1,1,3.76,3.28h0l-7.87,9h0a2.51,2.51,0,1,1-3.78-3.29Z" fill="#fff"/>
        <path d="M1294.86,579.14l8.07-8.91a2.47,2.47,0,1,1,3.67,3.32h0l-8,8.89,0,0a2.48,2.48,0,1,1-3.68-3.33Z" fill="#fff"/>
        <path d="M1313.15,559.2l8.29-8.72a2.45,2.45,0,0,1,3.55,3.38l0,0-8.23,8.69,0,0a2.46,2.46,0,0,1-3.57-3.38Z" fill="#fff"/>
        <path d="M1332,539.73l8.55-8.47a2.43,2.43,0,0,1,3.42,3.45l0,0-8.49,8.44,0,0a2.44,2.44,0,0,1-3.44-3.46Z" fill="#fff"/>
        <path d="M1351.36,520.85l8.83-8.18a2.41,2.41,0,1,1,3.27,3.53l0,0-8.77,8.14,0,0a2.41,2.41,0,1,1-3.28-3.54Z" fill="#fff"/>
        <path d="M1371.43,502.65l9.14-7.83a2.38,2.38,0,0,1,3.1,3.62l0,0-9.06,7.8,0,0a2.4,2.4,0,0,1-3.13-3.64Z" fill="#fff"/>
        <path d="M1392.19,485.25l9.47-7.44a2.34,2.34,0,0,1,2.89,3.69l0,0-9.37,7.43,0,0a2.37,2.37,0,0,1-3-3.72Z" fill="#fff"/>
        <path d="M1413.69,468.77l9.78-7a2.28,2.28,0,1,1,2.66,3.7l0,0-9.67,7,0,0a2.31,2.31,0,0,1-2.71-3.73Z" fill="#fff"/>
        <path d="M1435.89,453.24l10.09-6.59a2.21,2.21,0,0,1,2.42,3.71l0,0-10,6.58,0,0a2.25,2.25,0,0,1-2.47-3.75Z" fill="#fff"/>
        <path d="M1458.77,438.71l10.37-6.12a2.15,2.15,0,1,1,2.18,3.7h0L1461,442.43l0,0a2.17,2.17,0,0,1-2.23-3.73Z" fill="#fff"/>
        <path d="M1482.27,425.23l10.63-5.65a2.08,2.08,0,1,1,1.95,3.67l0,0-10.54,5.66,0,0a2.11,2.11,0,0,1-2-3.72Z" fill="#fff"/>
        <path d="M1506.34,412.81l10.87-5.18a2,2,0,1,1,1.73,3.63l0,0-10.78,5.2h0a2,2,0,1,1-1.78-3.68Z" fill="#fff"/>
        <path d="M1530.93,401.45l11.08-4.7a1.95,1.95,0,0,1,1.53,3.58h0l-11,4.73,0,0a2,2,0,0,1-1.57-3.64Z" fill="#fff"/>
        <path d="M1556,391.19l11.27-4.2a1.83,1.83,0,0,1,1.3,3.42h0l-11.17,4.28h0a1.88,1.88,0,1,1-1.35-3.51Z" fill="#fff"/>
        <path d="M1581.48,382l11.44-3.73a1.71,1.71,0,0,1,1.08,3.25h0l-11.35,3.81h0a1.77,1.77,0,1,1-1.12-3.35Z" fill="#fff"/>
        <path d="M1607.32,374l11.59-3.24a1.6,1.6,0,0,1,.87,3.07h0l-11.5,3.32h0a1.64,1.64,0,1,1-.91-3.16Z" fill="#fff"/>
        <path d="M1633.47,367l11.71-2.76a1.49,1.49,0,0,1,1.78,1.11,1.47,1.47,0,0,1-1.09,1.77h0L1634.21,370h0a1.53,1.53,0,0,1-.73-3Z" fill="#fff"/>
        <path d="M1659.89,361.09l11.81-2.27a1.36,1.36,0,0,1,.52,2.67h0l-11.74,2.37h0a1.41,1.41,0,0,1-.56-2.77Z" fill="#fff"/>
      </g>
    </g>
  </g>
</svg>
